<svg width="88" height="88" viewBox="0 0 88 88" fill="none" xmlns="http://www.w3.org/2000/svg">
<rect x="0.833008" y="0.240234" width="87" height="87" rx="24" fill="url(#paint0_linear_179_1941)"/>
<path d="M58.6822 28.2522H59.9947V28.2521L58.6822 28.2522ZM55.6142 43.5714V42.2589H55.6142L55.6142 43.5714ZM55.8539 27.3448L56.8058 28.2484L55.8539 27.3448ZM58.6822 28.2522H57.3697V43.5714H58.6822H59.9947V28.2522H58.6822ZM58.6822 43.5714H57.3697V61.7359H58.6822H59.9947V43.5714H58.6822ZM53.9851 31.8817H52.6726V42.1336H53.9851H55.2976V31.8817H53.9851ZM55.6142 43.5714V44.8839H58.6822V43.5714V42.2589H55.6142V43.5714ZM53.9851 42.1336H52.6726C52.6726 43.8019 54.1485 44.8839 55.6142 44.8839L55.6142 43.5714L55.6142 42.2589C55.4762 42.2589 55.3798 42.2095 55.3307 42.1662C55.2842 42.1251 55.2976 42.111 55.2976 42.1336H53.9851ZM55.8539 27.3448L54.902 26.4412C53.4778 27.9415 52.6726 29.8659 52.6726 31.8817H53.9851H55.2976C55.2976 30.5795 55.8156 29.2916 56.8058 28.2484L55.8539 27.3448ZM58.6822 28.2522L59.9947 28.2521C59.9946 26.879 59.0096 25.989 58.0291 25.6745C57.0485 25.3599 55.7876 25.5082 54.902 26.4412L55.8539 27.3448L56.8058 28.2484C56.8805 28.1698 57.0337 28.1119 57.2272 28.174C57.3148 28.2021 57.3586 28.2417 57.371 28.2564C57.3745 28.2605 57.3697 28.2502 57.3697 28.2522L58.6822 28.2522ZM33.7181 41.7976H32.4056L32.4056 61.7402H33.7181H35.0306L35.0306 41.7976H33.7181ZM33.7181 25.7403L32.4056 25.7403L32.4056 34.3689H33.7181H35.0306L35.0306 25.7403L33.7181 25.7403ZM38.9436 25.7403H37.6311V37.2976H38.9436H40.2561V25.7403H38.9436ZM34.4436 41.7976V40.4851H32.9927V41.7976V43.1101H34.4436V41.7976ZM28.4927 37.2976H29.8052V25.7403H28.4927H27.1802V37.2976H28.4927ZM32.9927 41.7976V40.4851C31.2323 40.4851 29.8052 39.058 29.8052 37.2976H28.4927H27.1802C27.1802 40.5078 29.7825 43.1101 32.9927 43.1101V41.7976ZM38.9436 37.2976H37.6311C37.6311 39.058 36.204 40.4851 34.4436 40.4851V41.7976V43.1101C37.6537 43.1101 40.2561 40.5078 40.2561 37.2976H38.9436ZM28.4927 34.3687V35.6812H38.9441V34.3687V33.0562H28.4927V34.3687ZM46.4645 45.6828H47.777L47.777 25.7402L46.4645 25.7402L45.152 25.7402L45.152 45.6828H46.4645ZM46.4645 45.6828V44.3703C42.6731 44.3703 40.1145 48.1692 40.1145 52.1374H41.427H42.7395C42.7395 48.9759 44.6914 46.9953 46.4645 46.9953V45.6828ZM41.427 52.1374H40.1145C40.1145 55.0744 41.1922 57.4715 42.4415 59.1345C43.0648 59.9644 43.7458 60.632 44.387 61.1046C44.707 61.3405 45.035 61.541 45.3574 61.6874C45.6598 61.8247 46.0483 61.9564 46.4647 61.9564V60.6439V59.3314C46.5778 59.3314 46.5814 59.3602 46.4425 59.2972C46.3235 59.2431 46.1536 59.1458 45.9445 58.9916C45.5273 58.6841 45.0247 58.2029 44.5403 57.558C43.574 56.2716 42.7395 54.4154 42.7395 52.1374H41.427ZM46.4645 45.6828V46.9953C48.2378 46.9953 50.1899 48.9759 50.1899 52.1371H51.5024H52.8149C52.8149 48.1686 50.2557 44.3703 46.4645 44.3703V45.6828ZM51.5024 52.1371H50.1899C50.1899 54.4151 49.3555 56.2713 48.3891 57.5579C47.9047 58.2028 47.4021 58.6841 46.9849 58.9916C46.7758 59.1458 46.6059 59.2431 46.487 59.2972C46.348 59.3603 46.3516 59.3314 46.4647 59.3314V60.6439V61.9564C46.8812 61.9564 47.2697 61.8247 47.5721 61.6874C47.8945 61.541 48.2225 61.3405 48.5426 61.1045C49.1837 60.6319 49.8647 59.9643 50.488 59.1344C51.7372 57.4712 52.8149 55.0741 52.8149 52.1371H51.5024Z" fill="#1084BC"/>
<defs>
<linearGradient id="paint0_linear_179_1941" x1="76.833" y1="6.24024" x2="9.33301" y2="80.7402" gradientUnits="userSpaceOnUse">
<stop stop-color="white"/>
<stop offset="1" stop-color="#F4FAFF"/>
</linearGradient>
</defs>
</svg>
