<svg width="88" height="88" viewBox="0 0 88 88" fill="none" xmlns="http://www.w3.org/2000/svg">
<rect x="0.166504" y="0.240234" width="87" height="87" rx="24" fill="url(#paint0_linear_179_1946)"/>
<path d="M55.4737 53.8014C55.4737 48.5187 56.5388 42.7078 63.2635 39.6498M48.6368 61.2069H29.9118L26.0415 37.8343H52.5071L49.8827 53.6825M34.3825 38.0541L35.6726 60.987M44.1655 38.0541L43.2805 53.7852M42.9678 59.3438L42.8753 60.987M40.1024 23.7734C40.1244 24.4575 39.8595 26.1345 38.6239 27.37C37.3884 28.6055 37.1235 30.2825 37.1455 30.9665M43.5084 27.5619C43.5304 28.2459 43.2655 29.9229 42.03 31.1584C40.7945 32.394 40.5296 34.071 40.5516 34.755M55.4717 53.6889C55.4717 57.8408 52.106 61.2066 47.9541 61.2066C43.8022 61.2066 40.4364 57.8408 40.4364 53.6889H55.4717Z" stroke="#1084BC" stroke-width="2.625"/>
<defs>
<linearGradient id="paint0_linear_179_1946" x1="76.1665" y1="6.24024" x2="8.66651" y2="80.7402" gradientUnits="userSpaceOnUse">
<stop stop-color="white"/>
<stop offset="1" stop-color="#F4FAFF"/>
</linearGradient>
</defs>
</svg>
