<svg width="88" height="88" viewBox="0 0 88 88" fill="none" xmlns="http://www.w3.org/2000/svg">
<rect x="0.5" y="0.240234" width="87" height="87" rx="24" fill="url(#paint0_linear_179_1937)"/>
<path d="M44.0004 25.2793L28.0806 34.1319V53.2704M44.0004 25.2793L59.9201 34.1319V53.2704M44.0004 25.2793L44.0001 44.3426M28.6819 40.7602L43.9996 32.2424L59.3173 40.7602M28.1825 53.1389L43.9278 44.3834C43.9731 44.3582 44.0283 44.3582 44.0736 44.3834L59.8188 53.1389C59.9216 53.1961 59.9216 53.3439 59.8188 53.4011L44.0736 62.1563C44.0283 62.1815 43.9731 62.1815 43.9278 62.1563L28.1825 53.4011C28.0797 53.3439 28.0797 53.1961 28.1825 53.1389Z" stroke="#1084BC" stroke-width="2.625"/>
<defs>
<linearGradient id="paint0_linear_179_1937" x1="76.5" y1="6.24024" x2="9" y2="80.7402" gradientUnits="userSpaceOnUse">
<stop stop-color="white"/>
<stop offset="1" stop-color="#F4FAFF"/>
</linearGradient>
</defs>
</svg>
