<svg width="88" height="87" viewBox="0 0 88 87" fill="none" xmlns="http://www.w3.org/2000/svg">
<rect x="0.5" width="87" height="87" rx="24" fill="url(#paint0_linear_179_2097)"/>
<path d="M43.5003 66.8337C56.387 66.8337 66.8337 56.387 66.8337 43.5003C66.8337 30.6137 56.387 20.167 43.5003 20.167C30.6137 20.167 20.167 30.6137 20.167 43.5003C20.167 56.387 30.6137 66.8337 43.5003 66.8337Z" stroke="#1084BC" stroke-width="3.75"/>
<path d="M36.5 52.833C38.4842 54.3037 40.8974 55.1663 43.5 55.1663C46.1026 55.1663 48.5157 54.3037 50.5 52.833" stroke="#1084BC" stroke-width="3.75" stroke-linecap="round"/>
<path d="M52.8337 40C52.8337 41.9329 51.789 43.5 50.5003 43.5C49.2116 43.5 48.167 41.9329 48.167 40C48.167 38.067 49.2116 36.5 50.5003 36.5C51.789 36.5 52.8337 38.067 52.8337 40Z" fill="#1084BC"/>
<path d="M36.5003 43.5C37.789 43.5 38.8337 41.933 38.8337 40C38.8337 38.067 37.789 36.5 36.5003 36.5C35.2117 36.5 34.167 38.067 34.167 40C34.167 41.933 35.2117 43.5 36.5003 43.5Z" fill="#1084BC"/>
<defs>
<linearGradient id="paint0_linear_179_2097" x1="76.5" y1="6" x2="9" y2="80.5" gradientUnits="userSpaceOnUse">
<stop stop-color="white"/>
<stop offset="1" stop-color="#F4FAFF"/>
</linearGradient>
</defs>
</svg>
