<svg width="88" height="87" viewBox="0 0 88 87" fill="none" xmlns="http://www.w3.org/2000/svg">
<rect x="0.5" width="87" height="87" rx="24" fill="url(#paint0_linear_179_2129)"/>
<path d="M38.8333 33.0003C38.8333 34.5474 38.2188 36.0312 37.1248 37.1251C36.0308 38.2191 34.5471 38.8337 33 38.8337C31.4529 38.8337 29.9692 38.2191 28.8752 37.1251C27.7812 36.0312 27.1667 34.5474 27.1667 33.0003C27.1667 31.4532 27.7812 29.9695 28.8752 28.8755C29.9692 27.7816 31.4529 27.167 33 27.167C34.5471 27.167 36.0308 27.7816 37.1248 28.8755C38.2188 29.9695 38.8333 31.4532 38.8333 33.0003ZM38.8333 33.0003L39.3257 32.753C40.6217 32.1049 42.0509 31.7675 43.5 31.7675C44.9491 31.7675 46.3783 32.1049 47.6743 32.753L48.1667 33.0003M48.1667 33.0003C48.1667 34.5474 48.7812 36.0312 49.8752 37.1251C50.9692 38.2191 52.4529 38.8337 54 38.8337C55.5471 38.8337 57.0308 38.2191 58.1248 37.1251C59.2188 36.0312 59.8333 34.5474 59.8333 33.0003C59.8333 31.4532 59.2188 29.9695 58.1248 28.8755C57.0308 27.7816 55.5471 27.167 54 27.167C52.4529 27.167 50.9692 27.7816 49.8752 28.8755C48.7812 29.9695 48.1667 31.4532 48.1667 33.0003ZM43.5 47.7073C55.1667 40.7073 55.1667 55.874 64.5 51.8303C62.1667 61.7073 50.5 61.7073 43.5 54.7073C36.5 61.7073 24.8333 61.7073 22.5 51.8303C31.8333 55.874 31.8333 40.7073 43.5 47.7073Z" stroke="#1084BC" stroke-width="3.5" stroke-linecap="round" stroke-linejoin="round"/>
<defs>
<linearGradient id="paint0_linear_179_2129" x1="76.5" y1="6" x2="9" y2="80.5" gradientUnits="userSpaceOnUse">
<stop stop-color="white"/>
<stop offset="1" stop-color="#F4FAFF"/>
</linearGradient>
</defs>
</svg>
