<svg width="185" height="51" viewBox="0 0 185 51" fill="none" xmlns="http://www.w3.org/2000/svg">
<path d="M21.568 19.8861C21.8901 19.4265 22.2646 19.0059 22.6839 18.633C22.8846 18.4643 23.0933 18.2956 23.3101 18.135C23.6794 17.8699 24.0326 17.653 24.3377 17.4763L24.5465 17.3558C25.8051 16.623 27.1743 16.0994 28.6006 15.8055C28.994 15.7172 29.4035 15.6368 29.9172 15.5565C30.431 15.4762 30.9368 15.4119 31.4747 15.3637C30.7284 16.595 29.8798 17.7612 28.9378 18.8499C28.8655 18.9302 28.7933 19.0025 28.7291 19.0828L28.5043 19.1471H28.424L28.1591 19.2355L27.8621 19.3399L27.573 19.4443C27.1007 19.629 26.6442 19.852 26.2082 20.111H26.136C25.9112 20.2395 25.7025 20.36 25.5018 20.4966L25.3573 20.5849L25.1807 20.7215C25.1223 20.7548 25.0684 20.7952 25.0201 20.842L24.8675 20.9705C24.6396 21.1725 24.4374 21.4018 24.2654 21.6533C24.1932 21.7577 24.1209 21.8621 24.0567 21.9746L23.9764 22.1192L23.9283 22.2236L23.864 22.3682C23.7366 22.6516 23.6398 22.9478 23.575 23.2517V23.3723V23.4927C23.5717 23.5301 23.5717 23.5678 23.575 23.6052C23.575 23.6052 23.575 23.6052 23.575 23.6534C23.575 23.7016 23.575 23.8462 23.575 23.9265V23.9747C23.571 24.0362 23.571 24.0979 23.575 24.1594C23.1282 24.6005 22.7074 25.0672 22.3146 25.5571V25.6053C21.8742 26.1359 21.4641 26.6911 21.0863 27.268C21.0061 27.0994 20.9338 26.9307 20.8615 26.762C20.6065 26.1482 20.4519 25.4972 20.4039 24.8342C20.3686 24.4119 20.3686 23.9873 20.4039 23.565C20.4039 23.4526 20.4039 23.3401 20.4039 23.2437C20.4668 22.7728 20.5688 22.308 20.709 21.8541C20.9441 21.1115 21.2877 20.4077 21.7286 19.7656L21.568 19.8861ZM47.1856 24.2157C46.4937 24.6003 45.7578 24.8996 44.994 25.1073C44.1157 25.3373 43.2125 25.4587 42.3046 25.4688C41.2517 25.4501 40.2031 25.329 39.1736 25.1073C38.2343 24.9466 37.7125 24.8261 37.1586 24.7056H37.0382H36.9338H36.8375L36.8856 24.6414C37.1542 24.2817 37.3779 23.8906 37.5519 23.4767C37.9602 22.4862 38.0907 21.4031 37.9293 20.344L34.8625 20.8339C34.9294 21.3231 34.8686 21.8212 34.6859 22.2798C34.5036 22.6904 34.2288 23.0533 33.8831 23.3401C33.4812 23.662 32.9974 23.8651 32.4862 23.9265C32.1651 23.9265 31.8841 23.8622 31.6031 23.8462H30.9047L30.0296 24.6976C30.2143 25.043 30.3909 25.4125 30.5515 25.7981C30.712 26.1836 30.8405 26.6013 30.9609 26.9628H31.3864C31.8038 26.9628 32.1892 27.0431 32.6066 27.1074H32.6869C33.1686 27.1797 33.7306 27.2761 34.413 27.3966C35.3683 27.5653 35.9222 27.6938 36.4601 27.8143H36.5083C37.0783 27.9428 37.6162 28.0633 38.5635 28.2239C38.7513 28.8689 39.0211 29.4871 39.3663 30.0634C39.8283 30.8107 40.4054 31.4803 41.0763 32.0475C41.3542 32.2931 41.6493 32.5186 41.9594 32.7222C43.0236 32.1546 44.0579 31.5325 45.0582 30.8586C44.3496 30.5914 43.6944 30.1997 43.1234 29.702C42.7686 29.409 42.4529 29.0715 42.1841 28.6979L42.136 28.6256H42.3206C43.4922 28.6104 44.6574 28.4485 45.7888 28.1436C46.2223 28.0258 46.6397 27.8892 47.0411 27.734C47.1353 26.9127 47.1809 26.0865 47.1776 25.2599C47.1776 24.9386 47.1776 24.6012 47.1776 24.2558L47.1856 24.2157ZM5.7607 23.5008C7.48674 24.4245 9.9112 23.3562 10.2082 23.2196C10.1601 22.8903 9.68643 20.2797 7.96039 19.364C6.23435 18.4483 3.80185 19.5086 3.50481 19.6451C3.52086 19.9745 3.98649 22.585 5.7607 23.5008ZM25.0281 7.22671C25.4629 7.89748 25.7906 8.63191 25.9995 9.40356C26.2581 10.3119 26.3746 11.2549 26.3447 12.1989C26.2837 13.5385 25.9244 14.8476 25.2931 16.0305C26.4287 15.5023 27.6263 15.1191 28.8575 14.8898C29.0936 14.0492 29.231 13.1838 29.267 12.3114C29.2954 11.5047 29.2416 10.6973 29.1064 9.90157C29.2814 8.96676 29.6358 8.07474 30.15 7.2749C30.4886 6.75582 30.8904 6.28097 31.3462 5.8612C31.8801 5.34711 32.4698 4.89442 33.1044 4.51168C31.8964 4.04491 30.65 3.68477 29.3793 3.43534L29.1786 3.62008C28.5708 4.20443 28.0321 4.85665 27.573 5.56395V5.70858L27.4847 5.58003C26.834 4.61227 26.041 3.7484 25.1325 3.01763C23.6715 3.0144 22.2139 3.15704 20.7813 3.44338C21.4909 3.86789 22.1672 4.34585 22.8043 4.87316C23.6529 5.53372 24.3879 6.32873 24.98 7.22671H25.0281ZM30.5916 9.31521C30.1741 10.5281 31.0973 11.982 31.2419 12.1989C31.4907 12.1186 33.1124 11.5322 33.5219 10.3193C33.9313 9.10636 33.0161 7.66047 32.8716 7.43556C32.5745 7.52392 30.9528 8.11032 30.5434 9.31521H30.5916ZM10.2082 18.135C10.2082 17.8619 10.3206 16.0545 9.31714 15.1549C8.31363 14.2552 6.52336 14.5605 6.25844 14.6087C6.25844 14.8818 6.14603 16.6891 7.14954 17.5807C8.15305 18.4724 9.88712 18.1832 10.1601 18.135H10.2082ZM25.1245 41.06L25.3171 40.7387C25.3813 40.6343 25.4376 40.5218 25.4938 40.4094C25.8113 39.8409 26.0157 39.2162 26.0959 38.5699C26.1752 38.0374 26.1752 37.496 26.0959 36.9634C26.0926 36.9287 26.0926 36.8937 26.0959 36.859C26.0654 36.6855 26.0252 36.5138 25.9754 36.3449L25.9273 36.2003C25.9273 36.1441 25.9272 36.0798 25.863 36.0156L25.6222 36.3208C25.4375 36.5537 25.2368 36.7787 25.012 37.0116C24.7873 37.2445 24.3377 37.6622 24.0728 37.9112C23.8078 38.1603 23.5911 38.329 23.3422 38.5298L23.0372 38.7627L22.7321 38.9876C21.9604 39.5149 21.156 39.9924 20.3237 40.4174C18.8867 41.152 17.3942 41.7724 15.8601 42.2729C14.6641 42.6558 13.4472 42.9696 12.2153 43.2128C13.4404 44.0953 14.7501 44.8541 16.1249 45.4779L16.7913 45.2691C18.4964 44.729 20.1511 44.041 21.7366 43.2128C22.915 42.6018 24.0332 41.881 25.0763 41.06H25.1245ZM13.7326 27.7259C14.2705 27.6054 14.8244 27.4849 15.7878 27.3162C16.783 27.1189 17.7879 26.9741 18.7983 26.8825C19.1114 26.8825 19.4325 26.8825 19.7537 26.8825C19.5449 26.2945 19.4153 25.6813 19.3683 25.0591C19.3683 24.9225 19.3683 24.7378 19.3683 24.5209C19.3683 24.304 19.3683 24.0631 19.3683 23.7819H18.5655C17.7303 23.8441 16.8994 23.954 16.0768 24.1112H16.0366C15.4388 23.5402 14.9802 22.8394 14.696 22.0629C14.485 21.4515 14.3923 20.8054 14.423 20.1592C14.4408 19.7641 14.5082 19.3728 14.6237 18.9945C14.15 18.7214 13.6844 18.4402 13.2028 18.1269C12.7211 17.8137 12.3116 17.5325 11.9504 17.2675C11.5799 18.133 11.3678 19.058 11.3242 19.9986C11.2702 21.0489 11.423 22.0996 11.7737 23.0911C11.9756 23.6722 12.245 24.2276 12.5765 24.7458V24.802H12.5123C12.135 24.8824 11.6613 24.9788 10.9067 25.1073C9.87708 25.3282 8.8286 25.4493 7.77576 25.4688C6.8653 25.458 5.95952 25.3366 5.07833 25.1073C4.31077 24.892 3.57012 24.5901 2.87061 24.2076C2.87061 24.553 2.87061 24.8824 2.87061 25.2197C2.87161 26.0436 2.91715 26.8668 3.00707 27.6858C3.40847 27.8384 3.80989 27.983 4.27552 28.1035C5.39375 28.4049 6.54546 28.5641 7.70348 28.5774H7.79183L7.74361 28.6577C7.4777 29.0287 7.16467 29.3636 6.81238 29.6538C6.26179 30.1282 5.63473 30.5057 4.95789 30.7703C5.94534 31.437 6.97295 32.0635 8.03266 32.6338C8.31361 32.4398 8.58177 32.2278 8.83547 31.9993C9.51117 31.4317 10.0912 30.7591 10.5534 30.0072C10.895 29.4376 11.1647 28.8278 11.3563 28.1918H11.4125C12.424 28.0231 13.0181 27.8946 13.5801 27.7661L13.7326 27.7259ZM10.698 15.0264L10.8345 15.179L10.987 15.3316L11.2359 15.5806L11.4045 15.7332L11.6292 15.926L11.7577 16.0305L11.862 16.1188C12.135 16.3437 12.416 16.5526 12.713 16.7694L12.8655 16.8739L13.0261 16.9863L13.6282 17.388C14.42 17.9023 15.2402 18.3716 16.0848 18.7937L16.414 18.9624L16.6629 19.0828H16.7512L16.8957 19.1551L17 19.2114L17.8028 19.613L18.0597 19.7415C18.8144 20.119 19.4646 20.4484 20.0427 20.7536C20.264 20.2575 20.5328 19.784 20.8455 19.3399C21.138 18.9149 21.4744 18.5218 21.849 18.1671C21.295 17.8619 20.6849 17.5566 19.9544 17.1871C19.9544 17.0104 20.0507 16.7775 20.0908 16.5445C20.0946 16.5206 20.0946 16.4962 20.0908 16.4722V16.424C20.2674 15.5726 20.4039 14.6971 20.5003 13.8456C20.5003 13.5645 20.5645 13.2833 20.5886 12.9299C20.701 11.5965 20.701 10.5603 20.701 10.014C20.701 9.71684 20.701 9.41962 20.701 9.09831C20.701 8.77701 20.701 8.51997 20.701 8.29505C20.6608 7.69261 20.6047 7.13836 20.5324 6.64034C20.3736 5.64637 20.1483 4.66421 19.858 3.70043C18.8597 3.93526 17.8803 4.244 16.9278 4.62415C17.1713 5.43827 17.3617 6.2674 17.4978 7.10625C17.6292 8.07788 17.6909 9.05766 17.6824 10.0381C17.6824 10.2791 17.6824 10.5763 17.6824 10.9217C17.6623 12.29 17.5335 13.6544 17.2971 15.0023C17.2971 15.0933 17.281 15.1897 17.2489 15.2915C17.2489 15.4521 17.1847 15.6128 17.1526 15.7814V15.8296H17.0964C16.5023 15.5164 15.9644 15.1951 15.3783 14.8175C14.5148 14.3007 13.7238 13.6713 13.0261 12.9459C12.4357 12.3276 11.9381 11.6268 11.549 10.8655C11.1521 10.0656 10.9044 9.19999 10.8184 8.31114C9.86884 9.10592 8.99048 9.98213 8.19323 10.9298C8.34118 11.3874 8.52367 11.8332 8.73914 12.2632C9.25987 13.2713 9.91923 14.2014 10.698 15.0264ZM37.9293 34.6018C37.9774 34.2725 38.2825 31.6378 36.9016 30.2562C35.5128 28.8746 32.8876 29.1878 32.5585 29.228C32.5103 29.5573 32.1972 32.1921 33.586 33.5737C34.5274 34.3466 35.7265 34.734 36.9418 34.6581C37.2717 34.6627 37.6015 34.6466 37.9293 34.6099V34.6018ZM37.271 42.5059C36.057 42.1895 34.8638 41.7978 33.6984 41.3331C32.7985 40.9819 31.9169 40.5851 31.0572 40.1443L30.8886 40.0559L30.8084 40.0077C30.5791 41.0209 30.2031 41.9951 29.6924 42.8995C30.5916 43.3574 31.5791 43.8072 32.5665 44.1927C33.3693 44.506 34.1721 44.7952 34.9749 45.0442C36.2283 44.4216 37.4169 43.6763 38.5233 42.8191L37.271 42.5139V42.5059ZM15.5309 11.8776C15.6914 11.6366 16.7752 9.83729 16.2293 8.37536C15.6834 6.91343 13.6925 6.25476 13.4115 6.17444C13.2509 6.42345 12.1671 8.22275 12.713 9.68468C13.2589 11.1466 15.2499 11.8134 15.5309 11.8857V11.8776ZM30.0698 39.1884V39.0679C30.0698 38.9796 30.0698 38.8832 30.0698 38.7868C30.146 38.0766 30.146 37.3603 30.0698 36.6501C30.0737 36.5779 30.0737 36.5055 30.0698 36.4333C30.0698 36.2244 30.0055 36.0155 29.9574 35.7987C29.9092 35.5818 29.861 35.389 29.8048 35.1962C29.3447 33.7673 28.5898 32.4511 27.5891 31.3325L27.5248 31.2522L27.4526 31.1639L27.3241 30.9952C26.6739 30.1919 26.1761 29.5252 25.7185 28.9388C25.2577 29.4674 24.8715 30.0565 24.5705 30.6899C24.4832 30.8972 24.416 31.1124 24.3698 31.3325C24.2973 31.6594 24.2649 31.9939 24.2735 32.3286C24.3778 32.4732 24.4822 32.6097 24.5946 32.7463L24.7712 32.9792L24.8194 33.0435L25.1405 33.4532C25.4295 33.8146 25.6704 34.1279 25.8871 34.4251C25.9754 34.5617 26.0557 34.6741 26.1199 34.7866C26.202 34.9107 26.2771 35.0395 26.3447 35.1721C26.5061 35.4793 26.6352 35.8023 26.7301 36.1361C26.7301 36.2566 26.7943 36.361 26.8184 36.4734C26.8156 36.4948 26.8156 36.5164 26.8184 36.5377C26.8184 36.6823 26.8746 36.8269 26.8987 36.9875C26.902 37.0061 26.902 37.0251 26.8987 37.0437C26.8987 37.2044 26.8987 37.3731 26.9468 37.5578C26.9832 37.9425 26.9832 38.3298 26.9468 38.7145C26.9034 39.1202 26.8118 39.5193 26.6739 39.9033C26.5731 40.1963 26.4497 40.4811 26.3046 40.7548L26.2163 40.9235L26.0316 41.2528L25.8309 41.5821C25.8129 41.6256 25.7885 41.6662 25.7587 41.7027C25.6703 41.8553 25.566 42.0239 25.4536 42.1926C24.8342 43.1191 24.1386 43.9923 23.3743 44.8032C22.6438 45.6065 21.865 46.3696 21.0542 47.0925C22.3779 47.3394 23.7217 47.4631 25.0683 47.462H25.2609L25.7025 46.9801C26.597 46.0299 27.4031 45.0001 28.1109 43.9036C28.2474 43.7028 28.3759 43.4859 28.5123 43.269L28.697 42.9477C28.7612 42.8513 28.8254 42.7388 28.8896 42.6264C29.4233 41.6972 29.7952 40.6841 29.9895 39.6302C30.0296 39.4375 30.0537 39.3089 30.0698 39.1643V39.1884ZM18.7181 28.9147C18.1301 28.8348 17.5352 28.8187 16.9438 28.8665C16.3815 28.8427 15.8204 28.9359 15.2959 29.1402C14.7714 29.3444 14.2949 29.6552 13.8965 30.053C13.4982 30.4508 13.1867 30.927 12.9816 31.4514C12.7765 31.9758 12.6823 32.5371 12.705 33.0997C12.6617 33.6943 12.6779 34.2916 12.7532 34.8829C13.3438 34.9627 13.9413 34.9789 14.5354 34.9312C15.0977 34.955 15.6588 34.8618 16.1834 34.6576C16.7079 34.4533 17.1843 34.1425 17.5827 33.7447C17.981 33.3469 18.2926 32.8707 18.4977 32.3463C18.7028 31.8219 18.797 31.2607 18.7743 30.698C18.8174 30.1008 18.8013 29.5008 18.7261 28.9067L18.7181 28.9147ZM32.9037 14.6087C32.7993 14.8014 32.6709 15.0424 32.5103 15.3075C31.7812 16.578 30.946 17.7846 30.0136 18.9142L29.58 19.4282C29.4436 19.5889 29.3151 19.7255 29.1947 19.854C29.0743 19.9825 28.7612 20.3279 28.5123 20.5849C28.2635 20.842 27.9744 21.1311 27.6533 21.4364C28.3375 22.1233 28.9483 22.8798 29.4757 23.6935L29.572 23.8542L29.7888 23.6534L30.0296 23.4124L30.0938 23.3562C30.5434 22.9144 30.8966 22.5529 31.29 22.1272C31.5228 21.8782 31.7155 21.6613 31.9002 21.4444C32.4942 20.7536 33.0642 20.0307 33.5941 19.2917L34.1159 18.5286C34.8625 17.4281 35.3603 16.5204 35.6252 16.0385C35.8018 15.7252 35.9383 15.4682 36.0587 15.2352C36.1791 15.0023 36.3076 14.7452 36.428 14.4882C36.6929 13.942 36.9097 13.4359 37.0863 12.962C37.5169 11.7823 37.8446 10.5675 38.0657 9.33124C38.1781 8.73683 38.2664 8.11835 38.3307 7.49984C37.3956 6.80064 36.4079 6.17489 35.3763 5.62823C35.3533 6.6847 35.2459 7.73763 35.0552 8.77699C34.8648 9.83652 34.58 10.8769 34.2042 11.8857C33.8526 12.8015 33.434 13.6901 32.9518 14.5444L32.9037 14.6087ZM23.4626 31.4129V31.3245V31.2763C23.4581 31.2255 23.4581 31.1745 23.4626 31.1237C23.4862 30.995 23.5211 30.8687 23.567 30.7462C23.6233 30.5775 23.6233 30.5775 23.6795 30.4088L23.6794 30.3285C23.6765 30.3018 23.6765 30.2749 23.6794 30.2482C23.6959 30.2005 23.7175 30.1547 23.7436 30.1116C23.7436 30.0474 23.7998 29.9911 23.8319 29.9349L23.9202 29.7742C23.9845 29.6698 24.0487 29.5654 24.129 29.4529C24.2093 29.3405 24.3297 29.1477 24.4742 28.9549L24.6749 28.6979L25.012 28.2641C25.277 27.9428 25.5178 27.6697 25.7747 27.3966C25.3576 26.4336 24.7325 25.575 23.9443 24.8824C23.4717 25.3406 23.0293 25.8289 22.6197 26.3443C21.5245 27.5347 20.7411 28.978 20.3397 30.5454C20.088 31.6433 20.0716 32.7821 20.2915 33.8869C20.3666 34.2422 20.4685 34.5914 20.5966 34.9312C20.8703 35.6466 21.2433 36.3199 21.7045 36.9313L21.9614 37.2847L22.0577 37.4052C22.2022 37.598 22.3628 37.7988 22.5314 37.9916C22.7642 37.8069 22.997 37.614 23.2218 37.4052L23.6152 37.0518L23.7838 36.8911C24.1247 36.5618 24.4463 36.2132 24.7472 35.8469L24.4983 35.5416C24.1697 35.1299 23.8794 34.689 23.6312 34.2243C23.4834 33.9173 23.3729 33.5937 23.3021 33.2604C23.3021 33.1908 23.286 33.0863 23.2539 32.9471C23.2495 32.9205 23.2495 32.8934 23.2539 32.8668C23.2492 32.808 23.2492 32.7489 23.2539 32.6901C23.2497 32.6339 23.2497 32.5776 23.2539 32.5214V32.425C23.2859 32.073 23.3559 31.7256 23.4626 31.3888V31.4129ZM23.3021 9.90962C23.5476 9.61519 23.731 9.2741 23.8414 8.90691C23.9518 8.53972 23.9868 8.15399 23.9443 7.77292C23.7035 6.84114 22.5394 6.31903 22.3387 6.23067C22.0932 6.52509 21.9098 6.86618 21.7994 7.23337C21.689 7.60056 21.654 7.98629 21.6964 8.36737C21.9373 9.26702 23.0933 9.79713 23.3021 9.88549V9.90962ZM36.3718 16.4482C36.1872 16.7775 35.7697 17.5486 35.1515 18.5125H36.4361C37.2409 18.5158 38.0452 18.4702 38.8445 18.376C39.7253 18.2868 40.5977 18.1283 41.4536 17.9021C42.3848 17.6469 43.2884 17.2997 44.151 16.8658C44.5369 16.6748 44.9121 16.463 45.2749 16.2313C44.8379 15.2483 44.3309 14.298 43.7577 13.3877C43.4205 13.6046 43.0673 13.8134 42.706 13.9982C42.0327 14.3339 41.3283 14.6029 40.6026 14.8014C39.908 14.9884 39.1991 15.1174 38.4832 15.187C37.9716 15.249 37.4571 15.2839 36.9418 15.2915C36.8054 15.6208 36.6046 15.9983 36.3718 16.424V16.4482ZM30.0778 26.9548L30.0136 26.762C29.9734 26.6576 29.9413 26.5532 29.9012 26.4407L29.845 26.272C29.845 26.2078 29.7968 26.1515 29.7807 26.0953V26.0471C29.6523 25.7258 29.5158 25.4366 29.3793 25.1716C29.3312 25.0832 29.283 24.9948 29.2429 24.9065L29.1224 24.6976C29.1224 24.6333 29.0502 24.5691 29.0101 24.5129L28.9057 24.3281C28.8013 24.1514 28.6889 23.9907 28.5846 23.8381L28.408 23.5811L28.2233 23.3401L28.0547 23.1232C27.7479 22.7444 27.421 22.3824 27.0753 22.0388L26.8344 21.7979L26.5294 21.5167L26.1842 21.2195C25.7064 21.4817 25.2903 21.8432 24.9639 22.2798C24.658 22.7375 24.4528 23.255 24.3618 23.798L24.434 23.8542L24.5143 23.9345L24.7551 24.1594L24.8194 24.2237L24.9157 24.3201L25.277 24.7137C25.3237 24.7582 25.3667 24.8066 25.4054 24.8583L25.5259 25.0028L25.6543 25.1635L25.7667 25.3081L25.8711 25.4527C26.0338 25.6743 26.1839 25.905 26.3206 26.1435C26.3484 26.18 26.3701 26.2206 26.3849 26.264C26.4351 26.3443 26.4807 26.4274 26.5213 26.513C26.5539 26.5675 26.5834 26.6239 26.6096 26.6817V26.7379L26.6739 26.8664C26.6739 26.8664 26.714 26.9468 26.7381 26.995L26.8344 27.2199C26.8344 27.2921 26.8906 27.3725 26.9227 27.4448L27.0191 27.7018L27.0913 27.9348C27.0913 28.0071 27.1395 28.0874 27.1556 28.1597C27.3108 28.7031 27.4156 29.2597 27.4686 29.8224L27.6453 30.0473C27.7416 30.1598 27.8299 30.2803 27.9262 30.4088C27.96 30.4427 27.9896 30.4804 28.0145 30.5212L28.2233 30.7863C29.0254 31.7119 29.6905 32.748 30.1982 33.8628C30.7369 31.9907 30.7976 30.0132 30.3748 28.1115C30.2999 27.7098 30.2009 27.3163 30.0778 26.9307V26.9548ZM24.699 14.0223C24.9719 12.8254 23.9524 11.5322 23.7838 11.3314C23.551 11.4358 22.0657 12.1346 21.7928 13.3636C21.5198 14.5926 22.5394 15.8457 22.708 16.0465C22.9408 15.918 24.426 15.195 24.699 13.9982V14.0223ZM42.1922 19.3881C40.4661 20.3038 39.9925 22.9144 39.9443 23.2437C40.2414 23.3803 42.6658 24.4486 44.3919 23.5249C46.1179 22.6011 46.5916 19.9986 46.6478 19.6692C46.3427 19.5086 43.9182 18.4403 42.1922 19.364V19.3881ZM41.1566 12.962C41.4002 12.8854 41.62 12.7475 41.7951 12.5616C41.9703 12.3757 42.0949 12.148 42.157 11.9002C42.2191 11.6524 42.2167 11.3927 42.1499 11.1461C42.0831 10.8995 41.9543 10.6742 41.7757 10.4916C41.5971 10.309 41.3747 10.1754 41.1297 10.1033C40.8847 10.0313 40.6253 10.0233 40.3764 10.0801C40.1275 10.137 39.8972 10.2567 39.7078 10.428C39.5183 10.5992 39.3758 10.8162 39.2941 11.0583C38.4912 11.8615 38.6518 13.2833 38.6759 13.5243C39.1065 13.5997 39.5478 13.588 39.9738 13.4901C40.3999 13.3921 40.802 13.2098 41.1566 12.954V12.962ZM156.295 28.489V17.8057H152.94V34.0636H156.761L163.689 23.3321V34.0636H167.037V17.7976H163.216L156.295 28.489ZM182.13 21.2597V17.8217H169.486V34.0797H182.13V30.6418H172.833V27.6456H180.123V24.1836H172.833V21.2356L182.13 21.2597ZM71.5429 34.1118H67.6814L73.7105 17.8539H78.142L84.1952 34.1118H80.3256L79.1294 30.6257H72.7632L71.5429 34.1118ZM73.8951 27.3805H78.0135L75.9664 21.4364L73.8951 27.3805ZM107.051 17.8539L101.086 34.1118H104.948L109.323 21.7738L113.747 34.0556H117.616L111.667 17.7976L107.051 17.8539ZM132.131 30.706H122.738V27.7098H130.028V24.1836H122.738V21.2356H132.131V17.7976H119.39V34.0556H132.131V30.706ZM137.365 34.144L136.876 35.6942H133.921V30.7141H135.069C135.612 30.5614 136.096 30.2477 136.458 29.8144C137.073 29.031 137.389 28.0543 137.349 27.0592V17.7976H149.239V30.6498H150.756V35.63H147.802L147.312 34.0797L137.365 34.144ZM139.717 30.7141H145.763V21.2356H140.833V27.3002C140.834 28.067 140.672 28.8251 140.36 29.5252C140.184 29.9129 139.968 30.2817 139.717 30.6257V30.7141ZM62.5594 24.288H56.0165V17.9021H52.6608V34.16H56.0165V27.734H62.5594V34.16H65.9152V17.7976H62.5594V24.288ZM95.3141 30.216C94.5411 30.7955 93.5985 31.1033 92.6327 31.0916C91.9965 31.1036 91.365 30.9794 90.7807 30.7273C90.1964 30.4751 89.6727 30.1009 89.2448 29.6296C88.3643 28.6316 87.8785 27.3462 87.8785 26.015C87.8785 24.6837 88.3643 23.3983 89.2448 22.4003C90.0027 21.5906 91.0266 21.0809 92.1292 20.9643C93.2319 20.8478 94.3396 21.1323 95.2498 21.7657C96.0399 22.3336 96.6458 23.1213 96.9919 24.0309L100.364 22.8019C99.7272 21.2231 98.6483 19.8619 97.2568 18.882C96.3283 18.2334 95.2731 17.7886 94.1605 17.577C93.0479 17.3654 91.9032 17.3917 90.8015 17.6542C89.6998 17.9167 88.6661 18.4094 87.7683 19.1C86.8704 19.7907 86.1288 20.6635 85.592 21.6613C84.8906 23.0095 84.5243 24.5071 84.5243 26.027C84.5243 27.547 84.8906 29.0445 85.592 30.3927C86.2732 31.6724 87.2919 32.7406 88.5375 33.4813C89.7831 34.222 91.2078 34.6068 92.6568 34.5938C94.3436 34.6074 95.991 34.0842 97.3612 33.0997C98.7803 32.078 99.8644 30.6579 100.476 29.0191L97.0802 27.8143C96.7188 28.7308 96.1067 29.527 95.3141 30.1116V30.216ZM55.7035 40.7307C55.8342 40.8395 55.9373 40.9778 56.0042 41.1341C56.0712 41.2905 56.1002 41.4606 56.0888 41.6303C56.0993 41.8109 56.0661 41.9914 55.992 42.1564C55.918 42.3214 55.8052 42.4661 55.6633 42.5782C55.3093 42.8181 54.8858 42.9339 54.4591 42.9075H52.6608V38.7065H55.8239V39.2125H53.2549V40.4174H54.5634C54.9679 40.3903 55.3696 40.5007 55.7035 40.7307ZM55.4867 41.6545C55.4867 41.1404 55.1415 40.8914 54.435 40.8914H53.2549V42.4336H54.435C54.7174 42.4565 54.9995 42.3859 55.2378 42.2328C55.322 42.1647 55.3886 42.0773 55.4319 41.978C55.4752 41.8788 55.494 41.7705 55.4867 41.6625V41.6545ZM57.4054 40.4736C57.3957 40.8398 57.3608 41.2047 57.3011 41.5661C57.2685 41.7865 57.1891 41.9974 57.0682 42.1846C57.022 42.2519 56.9595 42.3065 56.8865 42.343C56.8134 42.3795 56.7324 42.3969 56.6508 42.3934C56.5868 42.4012 56.5221 42.4012 56.4581 42.3934V42.9316C56.5815 42.9626 56.7082 42.9788 56.8354 42.9798C56.9574 42.9868 57.0794 42.9659 57.1921 42.9185C57.3048 42.8712 57.4052 42.7988 57.4857 42.7067C57.6659 42.4711 57.7871 42.1956 57.8389 41.9035C57.923 41.4368 57.9687 40.9639 57.9754 40.4897V39.2607H59.8379V42.9397H60.424V38.7386H57.4696L57.4054 40.4736ZM63.7075 38.7065L65.6101 42.9075H64.9839L64.5183 41.8553H62.2865L61.8289 42.9075H61.2107L63.1134 38.7065H63.7075ZM64.3096 41.3733L63.4024 39.3169L62.4952 41.3733H64.3096ZM69.1264 39.2286V38.7065H66.3728V42.9075H66.9669V39.2286H69.1264ZM73.2047 39.7025C73.3939 40.0384 73.4933 40.4174 73.4933 40.803C73.4933 41.1886 73.3939 41.5676 73.2047 41.9035C73.0185 42.2419 72.7401 42.5204 72.4019 42.7067C72.0487 42.8911 71.6563 42.9874 71.2579 42.9874C70.8595 42.9874 70.467 42.8911 70.1139 42.7067C69.7762 42.5197 69.498 42.2413 69.3111 41.9035C69.1163 41.5698 69.0164 41.1893 69.022 40.803C69.0166 40.4193 69.1166 40.0414 69.3111 39.7105C69.498 39.3727 69.7762 39.0943 70.1139 38.9073C70.467 38.7229 70.8595 38.6266 71.2579 38.6266C71.6563 38.6266 72.0487 38.7229 72.4019 38.9073C72.7361 39.0962 73.0112 39.3743 73.1967 39.7105L73.2047 39.7025ZM72.8916 40.803C72.8934 40.5205 72.8185 40.2429 72.6748 39.9997C72.5425 39.7548 72.3417 39.5537 72.0968 39.4214C71.8529 39.2798 71.576 39.205 71.294 39.2045C71.0123 39.2068 70.7358 39.2815 70.4912 39.4214C70.2458 39.5558 70.0429 39.7561 69.9052 39.9997C69.7643 40.2437 69.6922 40.5213 69.6964 40.803C69.6945 41.0844 69.7665 41.3614 69.9052 41.6063C70.0429 41.8499 70.2458 42.0502 70.4912 42.1846C70.7379 42.3185 71.0134 42.3902 71.294 42.3934C71.5748 42.3918 71.8508 42.32 72.0968 42.1846C72.3417 42.0522 72.5425 41.8513 72.6748 41.6063C72.8206 41.3661 72.9009 41.0919 72.9077 40.811L72.8916 40.803ZM73.8871 39.1965H75.3161V42.8754H75.9102V39.1965H77.3472V38.6744H73.8871V39.1965ZM81.3934 41.06C81.5503 41.2456 81.6306 41.484 81.6181 41.7267C81.6245 41.8893 81.5914 42.051 81.5215 42.198C81.4515 42.3449 81.3469 42.4726 81.2167 42.5701C80.8746 42.7946 80.4689 42.9017 80.0607 42.8754H78.142V38.6744H79.9403C80.3199 38.6486 80.6975 38.7472 81.016 38.9555C81.1442 39.0451 81.2476 39.1658 81.3164 39.3063C81.3852 39.4468 81.4172 39.6025 81.4094 39.7587C81.4135 39.9679 81.3518 40.1731 81.2328 40.3451C81.1126 40.5118 80.9446 40.6378 80.7511 40.7066C81.0106 40.7545 81.2443 40.8942 81.4094 41.1002L81.3934 41.06ZM78.728 40.5218H79.9001C80.1357 40.5389 80.3702 40.4767 80.5665 40.3451C80.6453 40.2878 80.7081 40.2111 80.7488 40.1225C80.7896 40.0339 80.8069 39.9363 80.7992 39.8391C80.804 39.7411 80.7854 39.6433 80.7449 39.5539C80.7044 39.4645 80.6432 39.3861 80.5665 39.325C80.3702 39.1934 80.1357 39.1313 79.9001 39.1483H78.728V40.5218ZM81.008 41.6785C81.0159 41.577 80.998 41.4751 80.9558 41.3824C80.9137 41.2897 80.8488 41.2092 80.7672 41.1484C80.5487 41.0209 80.297 40.9621 80.0447 40.9797H78.728V42.4015H80.0447C80.6976 42.4283 81.0241 42.2006 81.0241 41.7187L81.008 41.6785ZM86.4992 39.6704C86.6884 40.0063 86.7878 40.3853 86.7878 40.7708C86.7878 41.1564 86.6884 41.5354 86.4992 41.8713C86.3156 42.2116 86.0365 42.4908 85.6964 42.6746C85.3447 42.8589 84.9535 42.9552 84.5564 42.9552C84.1594 42.9552 83.7682 42.8589 83.4164 42.6746C83.0771 42.4897 82.7984 42.2108 82.6136 41.8713C82.4189 41.5377 82.319 41.1572 82.3246 40.7708C82.3192 40.3871 82.4192 40.0092 82.6136 39.6784C82.7984 39.3389 83.0771 39.06 83.4164 38.8752C83.7682 38.6908 84.1594 38.5945 84.5564 38.5945C84.9535 38.5945 85.3447 38.6908 85.6964 38.8752C86.0456 39.0669 86.3305 39.3575 86.5153 39.7105L86.4992 39.6704ZM86.1942 40.7708C86.196 40.4884 86.1211 40.2107 85.9774 39.9676C85.8406 39.726 85.6408 39.5262 85.3994 39.3893C85.1555 39.2477 84.8786 39.1729 84.5966 39.1724C84.3146 39.1729 84.0377 39.2477 83.7938 39.3893C83.5468 39.5215 83.3432 39.7223 83.2077 39.9676C83.064 40.2107 82.9891 40.4884 82.991 40.7708C82.9915 41.053 83.0662 41.33 83.2077 41.5741C83.3432 41.8194 83.5468 42.0202 83.7938 42.1525C84.0403 42.2867 84.3159 42.3584 84.5966 42.3613C84.8773 42.3594 85.1532 42.2876 85.3994 42.1525C85.6408 42.0156 85.8406 41.8157 85.9774 41.5741C86.1179 41.3434 86.198 41.0809 86.2102 40.811L86.1942 40.7708ZM90.738 39.0599C90.8869 39.1968 91.0058 39.3632 91.0872 39.5485C91.1685 39.7338 91.2104 39.9339 91.2104 40.1363C91.2104 40.3386 91.1685 40.5388 91.0872 40.7241C91.0058 40.9094 90.8869 41.0757 90.738 41.2126C90.3716 41.4884 89.9193 41.6251 89.4616 41.5982H88.45V42.8754H87.856V38.6744H89.4616C89.9328 38.6617 90.3924 38.8217 90.7541 39.1242L90.738 39.0599ZM90.6096 40.1363C90.6215 40.0043 90.6007 39.8714 90.5488 39.7495C90.497 39.6276 90.4158 39.5204 90.3126 39.4375C90.0566 39.2602 89.748 39.1752 89.4375 39.1965H88.45V41.0761H89.4696C89.7802 41.0974 90.0887 41.0124 90.3447 40.8351C90.4392 40.7546 90.5139 40.6531 90.5626 40.5388C90.6114 40.4246 90.6329 40.3005 90.6257 40.1764L90.6096 40.1363ZM92.6969 41.9115V38.6984H92.1028V42.8995H92.6568L95.1455 39.6865V42.8995H95.7315V38.6984H95.1776L92.6969 41.9115ZM96.5183 39.1965H97.9553V42.8754H98.5414V39.1965H99.9784V38.6744H96.5183V39.1965ZM101.335 40.9958H103.438V40.4817H101.335V39.1965H103.695V38.6744H100.733V42.8754H103.776V42.3533H101.367L101.335 40.9958ZM105.189 40.4415C105.183 40.8079 105.148 41.1732 105.084 41.534C105.055 41.7553 104.976 41.9671 104.851 42.1525C104.807 42.2192 104.745 42.2734 104.674 42.3099C104.602 42.3464 104.522 42.3642 104.442 42.3613C104.378 42.3691 104.313 42.3691 104.249 42.3613L104.201 42.8995C104.325 42.9305 104.451 42.9466 104.578 42.9477C104.701 42.9547 104.823 42.9337 104.935 42.8864C105.048 42.8391 105.148 42.7666 105.229 42.6746C105.412 42.4408 105.534 42.1645 105.582 41.8713C105.666 41.4046 105.712 40.9318 105.718 40.4576L105.767 39.2286H107.717V42.9075H108.303V38.7065H105.309L105.189 40.4415ZM112.566 40.4415C112.703 40.5655 112.81 40.7186 112.88 40.8897C112.949 41.0607 112.979 41.2452 112.968 41.4295C112.981 41.6264 112.948 41.8236 112.873 42.0059C112.798 42.1883 112.682 42.3511 112.534 42.4818C112.181 42.7456 111.745 42.8739 111.306 42.8433H109.58V38.6422H110.174V40.1041H111.418C111.857 40.0831 112.288 40.2296 112.623 40.5138L112.566 40.4415ZM112.366 41.4456C112.366 40.8673 112.004 40.5781 111.282 40.5781H110.174V42.3693H111.282C111.57 42.3892 111.855 42.3036 112.085 42.1284C112.179 42.0583 112.258 41.9692 112.316 41.8668C112.374 41.7645 112.41 41.6511 112.422 41.534L112.366 41.4456ZM116.926 40.4496H114.517V38.6422H113.923V42.8433H114.517V40.9717H116.926V42.8433H117.52V38.6422H116.926V40.4496ZM121.879 40.4496C122.016 40.5735 122.123 40.7267 122.192 40.8977C122.262 41.0688 122.292 41.2533 122.28 41.4376C122.293 41.6344 122.261 41.8316 122.186 42.014C122.11 42.1964 121.995 42.3591 121.847 42.4898C121.493 42.7524 121.058 42.8805 120.619 42.8513H118.957V38.6502H119.543V40.1122H120.795C121.211 40.1049 121.616 40.2475 121.935 40.5138L121.879 40.4496ZM121.678 41.4536C121.678 40.8753 121.317 40.5861 120.595 40.5861H119.479V42.3774H120.595C120.882 42.3973 121.168 42.3116 121.397 42.1364C121.493 42.0655 121.572 41.9751 121.63 41.8713C121.688 41.7674 121.724 41.6525 121.735 41.534L121.678 41.4536ZM122.939 42.8513H123.533V38.6502H122.971L122.939 42.8513ZM126.704 38.0318C126.549 38.0422 126.395 37.9965 126.27 37.9032C126.215 37.8608 126.171 37.8059 126.142 37.743C126.113 37.6801 126.099 37.6111 126.102 37.5418H125.676C125.671 37.6578 125.693 37.7733 125.741 37.8793C125.788 37.9852 125.86 38.0787 125.949 38.1522C126.171 38.3029 126.436 38.3763 126.704 38.3611C126.973 38.3791 127.24 38.3024 127.459 38.1442C127.548 38.0723 127.62 37.9803 127.667 37.8756C127.714 37.771 127.737 37.6566 127.731 37.5418H127.314C127.313 37.6106 127.298 37.6784 127.269 37.7408C127.24 37.8031 127.198 37.8585 127.145 37.9032C127.04 38.004 126.905 38.0687 126.76 38.088L126.704 38.0318ZM125.5 41.8954V38.6824H124.906V42.8834H125.452L127.94 39.6704V42.8834H128.59V38.6824H128.037L125.5 41.8954ZM135.615 39.4856C135.807 39.6435 135.961 39.844 136.062 40.0712C136.164 40.2985 136.212 40.5462 136.201 40.795C136.21 41.0424 136.162 41.2886 136.06 41.5143C135.959 41.74 135.806 41.9392 135.615 42.0962C135.151 42.439 134.587 42.6197 134.009 42.6103V43.0521H133.447V42.6103C132.858 42.6174 132.282 42.4374 131.802 42.0962C131.61 41.9392 131.458 41.74 131.356 41.5143C131.255 41.2886 131.207 41.0424 131.216 40.795C131.205 40.5462 131.253 40.2985 131.355 40.0712C131.456 39.844 131.609 39.6435 131.802 39.4856C132.279 39.1377 132.857 38.957 133.447 38.9716V38.5458H134.009V38.9716C134.607 38.9611 135.19 39.1473 135.671 39.5017L135.615 39.4856ZM133.415 39.4455C132.976 39.4466 132.548 39.581 132.187 39.831C132.046 39.9473 131.935 40.0953 131.863 40.2628C131.79 40.4304 131.758 40.6127 131.77 40.795C131.762 40.9763 131.797 41.1569 131.871 41.3226C131.945 41.4884 132.056 41.6349 132.195 41.7508C132.553 42.0026 132.978 42.1399 133.415 42.1444V39.4455ZM135.623 40.7869C135.63 40.6056 135.596 40.425 135.522 40.2592C135.448 40.0935 135.337 39.9469 135.198 39.831C134.839 39.583 134.414 39.4487 133.977 39.4455V42.1444C134.415 42.1414 134.841 42.004 135.198 41.7508C135.347 41.6425 135.469 41.4999 135.553 41.3351C135.637 41.1703 135.68 40.9879 135.679 40.803L135.623 40.7869ZM141.01 39.6945C141.199 40.0304 141.299 40.4094 141.299 40.795C141.299 41.1805 141.199 41.5596 141.01 41.8954C140.825 42.2349 140.546 42.5138 140.207 42.6987C139.855 42.8831 139.464 42.9794 139.067 42.9794C138.67 42.9794 138.279 42.8831 137.927 42.6987C137.59 42.5117 137.311 42.2333 137.124 41.8954C136.93 41.5618 136.83 41.1813 136.835 40.795C136.83 40.4112 136.93 40.0333 137.124 39.7025C137.311 39.3646 137.59 39.0863 137.927 38.8992C138.279 38.7149 138.67 38.6186 139.067 38.6186C139.464 38.6186 139.855 38.7149 140.207 38.8992C140.567 39.0789 140.866 39.3612 141.066 39.7105L141.01 39.6945ZM140.697 40.795C140.699 40.5125 140.624 40.2349 140.48 39.9917C140.348 39.7467 140.147 39.5457 139.902 39.4133C139.658 39.2718 139.381 39.197 139.099 39.1965C138.817 39.197 138.54 39.2718 138.296 39.4133C138.051 39.5477 137.848 39.7481 137.71 39.9917C137.57 40.2357 137.497 40.5133 137.502 40.795C137.5 41.0764 137.572 41.3534 137.71 41.5982C137.848 41.8419 138.051 42.0422 138.296 42.1766C138.543 42.3107 138.819 42.3824 139.099 42.3854C139.38 42.3834 139.656 42.3117 139.902 42.1766C140.147 42.0442 140.348 41.8432 140.48 41.5982C140.639 41.3644 140.733 41.0928 140.753 40.811L140.697 40.795ZM145.337 40.5058H142.929V38.6984H142.327V42.8995H142.929V41.0279H145.337V42.8995H145.939V38.6984H145.337V40.5058ZM150.628 42.3774H151.246V43.8152H150.692V42.8995H147.24V43.8152H146.678V42.3774H146.887C147.154 42.3774 147.339 42.1685 147.44 41.7508C147.571 41.1926 147.638 40.6213 147.641 40.0479L147.681 38.6984H150.628V42.3774ZM150.042 39.2206H148.195V40.1041C148.181 40.5968 148.132 41.088 148.051 41.5741C148.019 41.8735 147.892 42.1549 147.689 42.3774H150.098L150.042 39.2206Z" fill="white"/>
</svg>
