<svg width="87" height="87" viewBox="0 0 87 87" fill="none" xmlns="http://www.w3.org/2000/svg">
<rect width="87" height="87" rx="24" fill="url(#paint0_linear_179_1658)"/>
<path d="M33.3381 46.9528L32.5723 48.5264L32.5759 48.5281L33.3381 46.9528ZM38.5261 49.463L37.7639 51.0383L37.7651 51.0389L38.5261 49.463ZM47.7994 54.6586L48.266 56.3452L48.2744 56.3428L47.7994 54.6586ZM41.3436 56.4446L41.8096 58.1314L41.8103 58.1313L41.3436 56.4446ZM37.868 56.1296L37.106 57.7049L37.1063 57.7051L37.868 56.1296ZM33.0839 51.8713C32.2139 51.4504 31.1674 51.8146 30.7465 52.6846C30.3256 53.5547 30.6897 54.6012 31.5598 55.022L33.0839 51.8713ZM47.4531 51.1374C46.5292 51.4212 46.0104 52.4003 46.2942 53.3242C46.578 54.248 47.5571 54.7669 48.481 54.4831L47.4531 51.1374ZM59.6361 49.2254L59.1228 47.5524L59.1222 47.5526L59.6361 49.2254ZM65.2357 51.1385L63.806 52.1477C63.8099 52.1532 63.8139 52.1588 63.8179 52.1643L65.2357 51.1385ZM64.4252 55.0816L63.5515 53.5653L63.5505 53.5659L64.4252 55.0816ZM45.3324 66.1003L44.4577 64.5846L44.456 64.5855L45.3324 66.1003ZM41.3487 66.5754L40.762 68.2241C40.7921 68.2348 40.8225 68.2447 40.8531 68.2537L41.3487 66.5754ZM42.9997 20.2168L43.9568 18.7517L42.9998 18.1265L42.0427 18.7517L42.9997 20.2168ZM22.9739 46.46V48.21H31.1862V46.46V44.71H22.9739V46.46ZM31.1862 46.46V48.21C31.6718 48.21 32.1463 48.319 32.5723 48.5264L33.3381 46.9528L34.1039 45.3793C33.1936 44.9362 32.1945 44.71 31.1862 44.71V46.46ZM33.3381 46.9528L32.5759 48.5281L37.7639 51.0383L38.5261 49.463L39.2883 47.8877L34.1003 45.3775L33.3381 46.9528ZM38.5261 49.463L37.7651 51.0389C38.6731 51.4773 39.6703 51.7033 40.6805 51.7033V49.9533V48.2033C40.1918 48.2033 39.7154 48.094 39.287 47.8871L38.5261 49.463ZM40.6805 49.9533V51.7033H43.3279V49.9533V48.2033H40.6805V49.9533ZM43.3279 49.9533V51.7033C44.9773 51.7033 46.217 52.9836 46.217 54.4426H47.967H49.717C49.717 50.9424 46.8003 48.2033 43.3279 48.2033V49.9533ZM47.967 54.4426H46.217C46.217 53.716 46.7131 53.1467 47.3243 52.9743L47.7994 54.6586L48.2744 56.3428C49.0837 56.1146 49.717 55.3724 49.717 54.4426H47.967ZM47.7994 54.6586L47.3327 52.9719L40.877 54.758L41.3436 56.4446L41.8103 58.1313L48.266 56.3452L47.7994 54.6586ZM41.3436 56.4446L40.8776 54.7578C40.1284 54.9648 39.3295 54.8924 38.6297 54.554L37.868 56.1296L37.1063 57.7051C38.5705 58.413 40.242 58.5645 41.8096 58.1314L41.3436 56.4446ZM37.868 56.1296L38.6301 54.5542L33.0839 51.8713L32.3219 53.4467L31.5598 55.022L37.106 57.7049L37.868 56.1296ZM47.967 52.8102L48.481 54.4831L60.15 50.8983L59.6361 49.2254L59.1222 47.5526L47.4531 51.1374L47.967 52.8102ZM59.6361 49.2254L60.1495 50.8984C60.8128 50.6949 61.5236 50.7061 62.1802 50.9304L62.746 49.2744L63.3118 47.6184C61.9572 47.1556 60.4912 47.1325 59.1228 47.5524L59.6361 49.2254ZM62.746 49.2744L62.1802 50.9304C62.8368 51.1548 63.4058 51.5808 63.806 52.1477L65.2357 51.1385L66.6654 50.1294C65.84 48.9599 64.6663 48.0811 63.3118 47.6184L62.746 49.2744ZM65.2357 51.1385L63.8179 52.1643C64.1639 52.6426 63.9939 53.3104 63.5515 53.5653L64.4252 55.0816L65.2989 56.5979C67.5903 55.2776 68.1824 52.2258 66.6535 50.1127L65.2357 51.1385ZM64.4252 55.0816L63.5505 53.5659L44.4577 64.5846L45.3324 66.1003L46.2071 67.616L65.2999 56.5973L64.4252 55.0816ZM45.3324 66.1003L44.456 64.5855C44.0646 64.812 43.6312 64.9564 43.1822 65.0099L43.3894 66.7476L43.5967 68.4853C44.5174 68.3755 45.4062 68.0794 46.2088 67.615L45.3324 66.1003ZM43.3894 66.7476L43.1822 65.0099C42.7332 65.0635 42.278 65.0251 41.8443 64.897L41.3487 66.5754L40.8531 68.2537C41.7424 68.5163 42.6759 68.5951 43.5967 68.4853L43.3894 66.7476ZM41.3487 66.5754L41.9354 64.9266L20.8352 57.4185L20.2485 59.0673L19.6619 60.716L40.762 68.2241L41.3487 66.5754ZM42.9997 43.0488V41.2988C38.7543 41.2988 35.3127 37.8572 35.3127 33.6118H33.5627H31.8127C31.8127 39.7902 36.8213 44.7988 42.9997 44.7988V43.0488ZM33.5627 33.6118H35.3127C35.3127 30.7112 37.2495 27.7923 39.5405 25.4181C40.6486 24.2698 41.7629 23.3278 42.6023 22.6723C43.0206 22.3456 43.367 22.0929 43.6054 21.9241C43.7245 21.8398 43.8164 21.7766 43.8766 21.7357C43.9066 21.7153 43.9287 21.7005 43.9423 21.6915C43.9491 21.687 43.9537 21.6839 43.9562 21.6823C43.9574 21.6815 43.9581 21.6811 43.9582 21.681C43.9582 21.681 43.9581 21.681 43.9579 21.6812C43.9578 21.6812 43.9575 21.6814 43.9575 21.6815C43.9571 21.6817 43.9568 21.6819 42.9997 20.2168C42.0427 18.7517 42.0422 18.752 42.0418 18.7523C42.0416 18.7524 42.0411 18.7527 42.0407 18.753C42.0399 18.7535 42.0389 18.7541 42.0378 18.7548C42.0357 18.7563 42.0329 18.7581 42.0296 18.7603C42.023 18.7646 42.0141 18.7705 42.003 18.7779C41.9809 18.7926 41.95 18.8133 41.9109 18.8399C41.8328 18.8929 41.722 18.9692 41.583 19.0675C41.3054 19.2641 40.9145 19.5495 40.4481 19.9138C39.518 20.6401 38.273 21.6912 37.0219 22.9878C34.5943 25.5035 31.8127 29.2821 31.8127 33.6118H33.5627ZM42.9997 43.0488V44.7988C49.1785 44.7988 54.1858 39.7897 54.1858 33.6115H52.4358H50.6858C50.6858 37.8573 47.2449 41.2988 42.9997 41.2988V43.0488ZM52.4358 33.6115H54.1858C54.1858 29.2819 51.4045 25.5034 48.9771 22.9877C47.7261 21.6911 46.4812 20.64 45.5513 19.9138C45.0849 19.5495 44.694 19.2641 44.4164 19.0675C44.2775 18.9692 44.1667 18.8929 44.0886 18.8399C44.0495 18.8134 44.0186 18.7927 43.9965 18.7779C43.9854 18.7706 43.9765 18.7647 43.9699 18.7603C43.9666 18.7581 43.9638 18.7563 43.9616 18.7549C43.9606 18.7542 43.9596 18.7535 43.9588 18.753C43.9584 18.7528 43.9579 18.7524 43.9577 18.7523C43.9573 18.752 43.9568 18.7517 42.9997 20.2168C42.0426 21.6819 42.0423 21.6816 42.042 21.6814C42.0419 21.6814 42.0416 21.6812 42.0415 21.6811C42.0413 21.681 42.0412 21.6809 42.0412 21.681C42.0414 21.681 42.042 21.6815 42.0432 21.6823C42.0457 21.6839 42.0503 21.687 42.0571 21.6915C42.0707 21.7005 42.0928 21.7153 42.1228 21.7357C42.183 21.7765 42.2748 21.8397 42.394 21.9241C42.6324 22.0928 42.9787 22.3455 43.397 22.6722C44.2363 23.3277 45.3504 24.2696 46.4584 25.4179C48.7491 27.792 50.6858 30.7108 50.6858 33.6115H52.4358Z" fill="#1084BC"/>
<defs>
<linearGradient id="paint0_linear_179_1658" x1="76" y1="6" x2="8.5" y2="80.5" gradientUnits="userSpaceOnUse">
<stop stop-color="white"/>
<stop offset="1" stop-color="#F4FAFF"/>
</linearGradient>
</defs>
</svg>
