<svg width="87" height="87" viewBox="0 0 87 87" fill="none" xmlns="http://www.w3.org/2000/svg">
<rect width="87" height="87" rx="24" fill="url(#paint0_linear_179_1673)"/>
<path d="M18.96 65.3984C19.4542 54.5443 21.886 46.6175 27.2245 42.9958C33.9303 38.4464 43.2391 42.4441 48.8089 42.9955C53.1272 42.9955 57.1863 42.4768 60.0569 41.9554C61.9568 41.6104 63.9035 42.6168 64.5737 44.4277C65.2534 46.2646 64.6908 48.3365 62.896 49.1207C59.3537 50.6685 53.1095 52.1207 44.2646 51.1309L41.2875 65.3984M29.8302 51.2205L26.9521 65.5253M63.9836 47.9804L67.0605 65.5253M56.3048 50.6455L59.0283 65.5253M58.0122 42.0032C59.1423 40.9534 59.8866 39.4845 59.9885 37.8235C60.1993 34.3911 57.5877 31.4378 54.1553 31.227C50.7229 31.0163 47.7696 33.6279 47.5588 37.0603C47.4164 39.3796 48.5627 41.4802 50.3801 42.6637M42.1338 28.8711C42.1338 32.3898 39.2814 35.2422 35.7627 35.2422C32.244 35.2422 29.3916 32.3898 29.3916 28.8711C29.3916 25.3524 32.244 22.5 35.7627 22.5C39.2814 22.5 42.1338 25.3524 42.1338 28.8711Z" stroke="#1084BC" stroke-width="3.5"/>
<defs>
<linearGradient id="paint0_linear_179_1673" x1="76" y1="6" x2="8.5" y2="80.5" gradientUnits="userSpaceOnUse">
<stop stop-color="white"/>
<stop offset="1" stop-color="#F4FAFF"/>
</linearGradient>
</defs>
</svg>
