<svg width="40" height="41" viewBox="0 0 40 41" fill="none" xmlns="http://www.w3.org/2000/svg">
<path d="M20.0002 36.9076C29.2049 36.9076 36.6668 29.4456 36.6668 20.2409C36.6668 11.0361 29.2049 3.57422 20.0002 3.57422C10.7954 3.57422 3.3335 11.0361 3.3335 20.2409C3.3335 29.4456 10.7954 36.9076 20.0002 36.9076Z" fill="#B2E2F8"/>
<path d="M20 12.0421C22.6701 12.0421 22.9864 12.0522 24.0408 12.1003C25.0158 12.1448 25.5453 12.3077 25.8977 12.4447C26.3645 12.6261 26.6976 12.8427 27.0475 13.1927C27.3975 13.5427 27.6142 13.8757 27.7956 14.3425C27.9325 14.6949 28.0954 15.2244 28.1399 16.1993C28.188 17.2538 28.1982 17.5701 28.1982 20.2402C28.1982 22.9103 28.188 23.2266 28.1399 24.2811C28.0954 25.2561 27.9325 25.7855 27.7956 26.1379C27.6142 26.6046 27.3975 26.9378 27.0476 27.2877C26.6976 27.6376 26.3645 27.8543 25.8977 28.0357C25.5453 28.1727 25.0158 28.3356 24.0408 28.3801C22.9866 28.4281 22.6703 28.4384 20 28.4384C17.3297 28.4384 17.0135 28.4281 15.9592 28.3801C14.9842 28.3356 14.4547 28.1727 14.1023 28.0357C13.6355 27.8543 13.3024 27.6376 12.9525 27.2877C12.6026 26.9378 12.3858 26.6046 12.2044 26.1379C12.0675 25.7855 11.9046 25.2561 11.8601 24.2811C11.812 23.2266 11.8018 22.9103 11.8018 20.2402C11.8018 17.5701 11.812 17.2538 11.8601 16.1993C11.9046 15.2244 12.0675 14.6949 12.2044 14.3425C12.3858 13.8757 12.6025 13.5427 12.9525 13.1927C13.3024 12.8427 13.6355 12.6261 14.1023 12.4447C14.4547 12.3077 14.9842 12.1448 15.9592 12.1003C17.0136 12.0522 17.3299 12.0421 20 12.0421ZM20 10.2402C17.2842 10.2402 16.9436 10.2517 15.877 10.3004C14.8127 10.349 14.0857 10.518 13.4496 10.7652C12.792 11.0207 12.2343 11.3627 11.6784 11.9187C11.1224 12.4746 10.7805 13.0322 10.525 13.6898C10.2778 14.3259 10.1087 15.0528 10.0602 16.1172C10.0115 17.1838 10 17.5244 10 20.2402C10 22.9561 10.0115 23.2966 10.0602 24.3631C10.1087 25.4276 10.2778 26.1545 10.525 26.7906C10.7805 27.4481 11.1224 28.0058 11.6784 28.5618C12.2343 29.1177 12.792 29.4596 13.4496 29.7151C14.0857 29.9624 14.8127 30.1314 15.877 30.18C16.9436 30.2286 17.2842 30.2402 20 30.2402C22.7158 30.2402 23.0564 30.2286 24.123 30.18C25.1873 30.1314 25.9143 29.9624 26.5504 29.7151C27.208 29.4596 27.7657 29.1177 28.3216 28.5618C28.8775 28.0058 29.2195 27.4481 29.475 26.7906C29.7222 26.1545 29.8912 25.4276 29.9398 24.3631C29.9885 23.2966 30 22.9561 30 20.2402C30 17.5244 29.9885 17.1838 29.9398 16.1172C29.8912 15.0528 29.7222 14.3259 29.475 13.6898C29.2195 13.0322 28.8775 12.4746 28.3216 11.9187C27.7657 11.3627 27.208 11.0207 26.5504 10.7652C25.9143 10.518 25.1873 10.349 24.123 10.3004C23.0564 10.2517 22.7158 10.2402 20 10.2402Z" fill="#1084BC"/>
<path d="M20.0047 15.1094C17.1686 15.1094 14.8696 17.4084 14.8696 20.2445C14.8696 23.0805 17.1686 25.3795 20.0047 25.3795C22.8408 25.3795 25.1399 23.0805 25.1399 20.2445C25.1399 17.4084 22.8408 15.1094 20.0047 15.1094ZM20.0047 23.5778C18.1638 23.5778 16.6714 22.0854 16.6714 20.2445C16.6714 18.4035 18.1638 16.9111 20.0047 16.9111C21.8457 16.9111 23.338 18.4035 23.338 20.2445C23.338 22.0854 21.8457 23.5778 20.0047 23.5778Z" fill="#1084BC"/>
<path d="M26.5421 14.9032C26.5421 15.5659 26.0048 16.1032 25.3421 16.1032C24.6793 16.1032 24.1421 15.5659 24.1421 14.9032C24.1421 14.2405 24.6793 13.7031 25.3421 13.7031C26.0048 13.7031 26.5421 14.2405 26.5421 14.9032Z" fill="#1084BC"/>
</svg>
