<svg width="181" height="46" viewBox="0 0 181 46" fill="none" xmlns="http://www.w3.org/2000/svg">
<path d="M19.5678 17.6459C19.8899 17.1862 20.2644 16.7657 20.6837 16.3928C20.8844 16.2241 21.0931 16.0554 21.3099 15.8948C21.6791 15.6297 22.0324 15.4128 22.3375 15.2361L22.5462 15.1156C23.8049 14.3827 25.174 13.8591 26.6004 13.5653C26.9938 13.4769 27.4032 13.3966 27.917 13.3163C28.4308 13.2359 28.9366 13.1717 29.4745 13.1235C28.7282 14.3548 27.8795 15.521 26.9376 16.6097C26.8653 16.69 26.793 16.7623 26.7288 16.8426L26.5041 16.9069H26.4237L26.1588 16.9952L25.8618 17.0996L25.5728 17.2041C25.1005 17.3888 24.644 17.6117 24.208 17.8708H24.1358C23.911 17.9993 23.7023 18.1198 23.5016 18.2563L23.357 18.3447L23.1804 18.4813C23.1221 18.5146 23.0681 18.555 23.0198 18.6017L22.8673 18.7303C22.6394 18.9323 22.4371 19.1616 22.2652 19.413C22.1929 19.5175 22.1207 19.6219 22.0565 19.7344L21.9762 19.8789L21.928 19.9834L21.8638 20.1279C21.7364 20.4114 21.6395 20.7076 21.5748 21.0115V21.132V21.2525C21.5714 21.2899 21.5714 21.3275 21.5748 21.365C21.5748 21.365 21.5748 21.365 21.5748 21.4131C21.5748 21.4613 21.5748 21.6059 21.5748 21.6863V21.7345C21.5708 21.796 21.5708 21.8577 21.5748 21.9192C21.128 22.3603 20.7071 22.827 20.3144 23.3169V23.3651C19.8739 23.8957 19.4639 24.4508 19.0861 25.0278C19.0058 24.8591 18.9335 24.6904 18.8613 24.5218C18.6062 23.9079 18.4517 23.257 18.4037 22.594C18.3684 22.1716 18.3684 21.7471 18.4037 21.3248C18.4037 21.2123 18.4037 21.0999 18.4037 21.0035C18.4665 20.5326 18.5686 20.0678 18.7088 19.6139C18.9439 18.8712 19.2875 18.1675 19.7283 17.5254L19.5678 17.6459ZM45.1854 21.9754C44.4935 22.36 43.7576 22.6594 42.9937 22.867C42.1154 23.0971 41.2122 23.2185 40.3043 23.2285C39.2514 23.2099 38.2028 23.0888 37.1734 22.867C36.2341 22.7064 35.7122 22.5859 35.1583 22.4654H35.0379H34.9335H34.8372L34.8854 22.4011C35.154 22.0414 35.3777 21.6503 35.5517 21.2365C35.96 20.246 36.0905 19.1629 35.929 18.1037L32.8623 18.5937C32.9291 19.0828 32.8683 19.581 32.6857 20.0396C32.5033 20.4502 32.2286 20.813 31.8829 21.0999C31.481 21.4218 30.9971 21.6249 30.486 21.6863C30.1648 21.6863 29.8839 21.622 29.6029 21.6059H28.9044L28.0294 22.4574C28.214 22.8028 28.3906 23.1723 28.5512 23.5578C28.7118 23.9434 28.8402 24.3611 28.9606 24.7226H29.3861C29.8036 24.7226 30.1889 24.8029 30.6064 24.8672H30.6867C31.1683 24.9394 31.7303 25.0359 32.4127 25.1564C33.3681 25.325 33.922 25.4535 34.4599 25.574H34.508C35.078 25.7025 35.6159 25.823 36.5632 25.9837C36.751 26.6287 37.0208 27.2469 37.366 27.8231C37.8281 28.5704 38.4052 29.2401 39.076 29.8072C39.354 30.0529 39.6491 30.2784 39.9591 30.482C41.0233 29.9143 42.0576 29.2923 43.058 28.6184C42.3494 28.3512 41.6941 27.9595 41.1232 27.4617C40.7683 27.1687 40.4527 26.8313 40.1839 26.4576L40.1357 26.3853H40.3204C41.492 26.3702 42.6571 26.2083 43.7885 25.9034C44.222 25.7856 44.6395 25.649 45.0409 25.4937C45.135 24.6724 45.1806 23.8463 45.1774 23.0197C45.1774 22.6984 45.1774 22.361 45.1774 22.0156L45.1854 21.9754ZM3.76045 21.2605C5.48649 22.1843 7.91096 21.116 8.208 20.9794C8.15983 20.6501 7.68618 18.0395 5.96014 17.1238C4.2341 16.208 1.8016 17.2683 1.50456 17.4049C1.52062 17.7342 1.98625 20.3448 3.76045 21.2605ZM23.0279 4.98647C23.4626 5.65725 23.7903 6.39167 23.9993 7.16332C24.2579 8.07169 24.3743 9.01463 24.3445 9.95865C24.2835 11.2983 23.9241 12.6073 23.2928 13.7902C24.4285 13.262 25.626 12.8788 26.8573 12.6496C27.0934 11.8089 27.2308 10.9436 27.2667 10.0711C27.2952 9.26449 27.2414 8.45706 27.1062 7.66134C27.2811 6.72653 27.6355 5.8345 28.1498 5.03466C28.4884 4.51559 28.8902 4.04074 29.346 3.62097C29.8798 3.10688 30.4696 2.65418 31.1041 2.27145C29.8962 1.80467 28.6498 1.44454 27.3791 1.19511L27.1784 1.37984C26.5706 1.9642 26.0319 2.61642 25.5728 3.32372V3.46835L25.4845 3.3398C24.8338 2.37204 24.0408 1.50816 23.1322 0.777397C21.6713 0.774165 20.2137 0.916804 18.781 1.20315C19.4907 1.62766 20.167 2.10562 20.8041 2.63293C21.6527 3.29349 22.3876 4.0885 22.9797 4.98647H23.0279ZM28.5913 7.07498C28.1739 8.2879 29.0971 9.74177 29.2416 9.95865C29.4905 9.87833 31.1122 9.29197 31.5216 8.07905C31.931 6.86613 31.0158 5.42024 30.8713 5.19533C30.5743 5.28369 28.9526 5.87009 28.5432 7.07498H28.5913ZM8.208 15.8948C8.208 15.6216 8.32041 13.8143 7.31689 12.9146C6.31338 12.015 4.52312 12.3202 4.25819 12.3684C4.25819 12.6415 4.14579 14.4489 5.1493 15.3405C6.15281 16.2321 7.88688 15.9429 8.15983 15.8948H8.208ZM23.1242 38.8198L23.3169 38.4985C23.3811 38.3941 23.4373 38.2816 23.4935 38.1691C23.811 37.6006 24.0155 36.976 24.0956 36.3297C24.175 35.7971 24.175 35.2557 24.0956 34.7232C24.0923 34.6884 24.0923 34.6535 24.0956 34.6187C24.0652 34.4453 24.0249 34.2736 23.9752 34.1046L23.927 33.9601C23.927 33.9038 23.927 33.8396 23.8628 33.7753L23.6219 34.0806C23.4373 34.3135 23.2366 34.5384 23.0118 34.7714C22.787 35.0043 22.3375 35.422 22.0725 35.671C21.8076 35.92 21.5909 36.0887 21.342 36.2895L21.0369 36.5225L20.7319 36.7474C19.9602 37.2746 19.1557 37.7522 18.3234 38.1772C16.8864 38.9118 15.394 39.5322 13.8598 40.0327C12.6639 40.4156 11.4469 40.7294 10.215 40.9726C11.4402 41.8551 12.7498 42.6138 14.1247 43.2377L14.791 43.0289C16.4962 42.4888 18.1509 41.8007 19.7364 40.9726C20.9148 40.3616 22.0329 39.6408 23.076 38.8198H23.1242ZM11.7323 25.4857C12.2702 25.3652 12.8242 25.2447 13.7875 25.076C14.7827 24.8786 15.7876 24.7339 16.7981 24.6423C17.1112 24.6423 17.4323 24.6423 17.7534 24.6423C17.5446 24.0543 17.4151 23.4411 17.3681 22.8188C17.3681 22.6823 17.3681 22.4976 17.3681 22.2807C17.3681 22.0638 17.3681 21.8228 17.3681 21.5417H16.5653C15.7301 21.6039 14.8991 21.7138 14.0765 21.871H14.0364C13.4386 21.3 12.9799 20.5992 12.6957 19.8227C12.4847 19.2112 12.3921 18.5651 12.4227 17.919C12.4406 17.5239 12.508 17.1325 12.6235 16.7542C12.1498 16.4811 11.6842 16.2 11.2025 15.8867C10.7208 15.5734 10.3114 15.2923 9.95013 15.0272C9.57968 15.8927 9.36756 16.8178 9.32392 17.7583C9.26998 18.8087 9.42273 19.8594 9.77349 20.8509C9.97534 21.432 10.2448 21.9874 10.5763 22.5056V22.5618H10.5121C10.1347 22.6421 9.66108 22.7385 8.90644 22.867C7.87684 23.088 6.82836 23.2091 5.77551 23.2285C4.86505 23.2178 3.95928 23.0964 3.07809 22.867C2.31052 22.6517 1.56987 22.3499 0.870361 21.9674C0.870361 22.3128 0.870361 22.6421 0.870361 22.9795C0.871363 23.8034 0.916909 24.6266 1.00683 25.4455C1.40823 25.5981 1.80965 25.7427 2.27528 25.8632C3.39351 26.1647 4.54521 26.3239 5.70324 26.3371H5.79159L5.74337 26.4174C5.47746 26.7885 5.16443 27.1233 4.81213 27.4135C4.26155 27.888 3.63448 28.2655 2.95765 28.53C3.9451 29.1967 4.97271 29.8233 6.03242 30.3936C6.31336 30.1995 6.58152 29.9876 6.83523 29.759C7.51093 29.1914 8.09096 28.5188 8.5532 27.767C8.89479 27.1974 9.16446 26.5876 9.35601 25.9516H9.41221C10.4238 25.7829 11.0178 25.6544 11.5798 25.5258L11.7323 25.4857ZM8.69775 12.7861L8.83421 12.9388L8.98675 13.0914L9.23562 13.3404L9.40423 13.493L9.62899 13.6858L9.75742 13.7902L9.86178 13.8786C10.1347 14.1035 10.4157 14.3123 10.7128 14.5292L10.8653 14.6336L11.0259 14.7461L11.628 15.1477C12.4198 15.6621 13.24 16.1314 14.0846 16.5534L14.4137 16.7221L14.6626 16.8426H14.7509L14.8954 16.9149L14.9998 16.9711L15.8026 17.3728L16.0595 17.5013C16.8141 17.8788 17.4644 18.2081 18.0424 18.5134C18.2637 18.0173 18.5326 17.5438 18.8452 17.0996C19.1378 16.6747 19.4741 16.2816 19.8487 15.9269C19.2948 15.6216 18.6847 15.3164 17.9541 14.9469C17.9541 14.7702 18.0504 14.5373 18.0906 14.3043C18.0943 14.2804 18.0943 14.256 18.0906 14.232V14.1838C18.2672 13.3324 18.4037 12.4568 18.5 11.6054C18.5 11.3242 18.5642 11.0431 18.5883 10.6896C18.7007 9.35623 18.7007 8.32002 18.7007 7.77381C18.7007 7.4766 18.7007 7.17938 18.7007 6.85808C18.7007 6.53678 18.7007 6.27973 18.7007 6.05482C18.6606 5.45238 18.6044 4.89813 18.5322 4.40011C18.3734 3.40614 18.1481 2.42397 17.8578 1.4602C16.8595 1.69502 15.88 2.00376 14.9275 2.38392C15.1711 3.19804 15.3615 4.02716 15.4975 4.86601C15.6289 5.83765 15.6906 6.81742 15.6822 7.79788C15.6822 8.03886 15.6822 8.33609 15.6822 8.6815C15.6621 10.0498 15.5332 11.4142 15.2968 12.762C15.2968 12.8531 15.2808 12.9495 15.2487 13.0512C15.2487 13.2119 15.1844 13.3725 15.1523 13.5412V13.5894H15.0961C14.502 13.2761 13.9641 12.9548 13.3781 12.5773C12.5146 12.0605 11.7236 11.4311 11.0259 10.7057C10.4355 10.0874 9.9379 9.38661 9.54873 8.62526C9.15181 7.82541 8.9042 6.95976 8.81814 6.0709C7.8686 6.86569 6.99024 7.7419 6.19299 8.68954C6.34094 9.1472 6.52343 9.59293 6.73889 10.0229C7.25962 11.031 7.91899 11.9612 8.69775 12.7861ZM35.929 32.3616C35.9772 32.0322 36.2822 29.3976 34.9014 28.016C33.5125 26.6344 30.8874 26.9476 30.5582 26.9878C30.5101 27.3171 30.1969 29.9518 31.5858 31.3334C32.5272 32.1063 33.7262 32.4938 34.9416 32.4178C35.2714 32.4225 35.6012 32.4064 35.929 32.3696V32.3616ZM35.2707 40.2657C34.0567 39.9492 32.8636 39.5575 31.6982 39.0929C30.7982 38.7416 29.9167 38.3449 29.057 37.9041L28.8884 37.8157L28.8081 37.7675C28.5788 38.7806 28.2029 39.7549 27.6922 40.6593C28.5913 41.1171 29.5788 41.5669 30.5663 41.9525C31.3691 42.2658 32.1719 42.555 32.9747 42.804C34.228 42.1814 35.4166 41.436 36.5231 40.5789L35.2707 40.2737V40.2657ZM13.5306 9.63738C13.6912 9.3964 14.775 7.59706 14.2291 6.13513C13.6832 4.67319 11.6922 4.01453 11.4113 3.9342C11.2507 4.18321 10.1669 5.98251 10.7128 7.44444C11.2587 8.90638 13.2496 9.57312 13.5306 9.64542V9.63738ZM28.0695 36.9482V36.8277C28.0695 36.7393 28.0695 36.643 28.0695 36.5466C28.1457 35.8364 28.1457 35.1201 28.0695 34.4099C28.0734 34.3376 28.0734 34.2653 28.0695 34.193C28.0695 33.9842 28.0053 33.7753 27.9571 33.5584C27.909 33.3416 27.8608 33.1488 27.8046 32.956C27.3444 31.5271 26.5896 30.2108 25.5888 29.0923L25.5246 29.012L25.4524 28.9237L25.3239 28.755C24.6736 27.9517 24.1759 27.285 23.7183 26.6986C23.2575 27.2271 22.8712 27.8163 22.5703 28.4497C22.4829 28.657 22.4157 28.8722 22.3696 29.0923C22.2971 29.4192 22.2647 29.7536 22.2732 30.0883C22.3776 30.2329 22.482 30.3695 22.5944 30.5061L22.771 30.739L22.8191 30.8033L23.1403 31.2129C23.4293 31.5744 23.6701 31.8877 23.8869 32.1849C23.9752 32.3214 24.0555 32.4339 24.1197 32.5463C24.2018 32.6705 24.2769 32.7993 24.3445 32.9319C24.5058 33.2391 24.635 33.5621 24.7298 33.8958C24.7298 34.0163 24.794 34.1207 24.8181 34.2332C24.8153 34.2545 24.8153 34.2761 24.8181 34.2975C24.8181 34.4421 24.8743 34.5866 24.8984 34.7473C24.9017 34.7659 24.9017 34.7849 24.8984 34.8035C24.8984 34.9641 24.8984 35.1328 24.9466 35.3176C24.983 35.7023 24.983 36.0896 24.9466 36.4743C24.9032 36.88 24.8115 37.2791 24.6736 37.6631C24.5729 37.9561 24.4495 38.2408 24.3044 38.5146L24.216 38.6832L24.0314 39.0126L23.8307 39.3419C23.8126 39.3854 23.7882 39.426 23.7584 39.4624C23.6701 39.615 23.5658 39.7837 23.4534 39.9524C22.8339 40.8788 22.1384 41.752 21.3741 42.563C20.6435 43.3663 19.8648 44.1293 19.054 44.8523C20.3777 45.0992 21.7215 45.2229 23.068 45.2218H23.2607L23.7023 44.7398C24.5967 43.7896 25.4029 42.7599 26.1107 41.6633C26.2472 41.4625 26.3756 41.2456 26.5121 41.0287L26.6967 40.7075C26.7609 40.6111 26.8252 40.4986 26.8894 40.3861C27.4231 39.457 27.795 38.4439 27.9892 37.39C28.0294 37.1972 28.0535 37.0687 28.0695 36.9241V36.9482ZM16.7178 26.6745C16.1299 26.5946 15.535 26.5784 14.9436 26.6263C14.3813 26.6025 13.8201 26.6957 13.2956 26.8999C12.7711 27.1041 12.2946 27.4149 11.8963 27.8127C11.4979 28.2106 11.1864 28.6867 10.9813 29.2112C10.7762 29.7356 10.6821 30.2968 10.7048 30.8595C10.6615 31.454 10.6776 32.0514 10.7529 32.6427C11.3436 32.7225 11.9411 32.7387 12.5352 32.6909C13.0975 32.7147 13.6586 32.6215 14.1831 32.4173C14.7076 32.2131 15.1841 31.9023 15.5824 31.5045C15.9808 31.1067 16.2924 30.6305 16.4975 30.1061C16.7025 29.5817 16.7967 29.0204 16.774 28.4578C16.8172 27.8605 16.8011 27.2605 16.7258 26.6665L16.7178 26.6745ZM30.9034 12.3684C30.7991 12.5612 30.6706 12.8022 30.5101 13.0673C29.781 14.3378 28.9457 15.5443 28.0133 16.6739L27.5798 17.188C27.4433 17.3486 27.3149 17.4852 27.1945 17.6137C27.074 17.7423 26.761 18.0876 26.5121 18.3447C26.2632 18.6017 25.9742 18.8909 25.6531 19.1961C26.3373 19.8831 26.948 20.6396 27.4754 21.4533L27.5718 21.614L27.7885 21.4131L28.0294 21.1722L28.0936 21.1159C28.5432 20.6742 28.8964 20.3127 29.2898 19.887C29.5226 19.638 29.7153 19.4211 29.8999 19.2042C30.494 18.5134 31.064 17.7904 31.5938 17.0514L32.1157 16.2883C32.8623 15.1879 33.36 14.2802 33.625 13.7983C33.8016 13.485 33.938 13.2279 34.0585 12.995C34.1789 12.7621 34.3074 12.505 34.4278 12.248C34.6927 11.7018 34.9095 11.1957 35.0861 10.7218C35.5167 9.54207 35.8444 8.32727 36.0655 7.09101C36.1779 6.4966 36.2662 5.87811 36.3304 5.2596C35.3954 4.56041 34.4077 3.93466 33.3761 3.38799C33.3531 4.44447 33.2457 5.4974 33.055 6.53676C32.8646 7.59629 32.5798 8.63669 32.204 9.64542C31.8523 10.5612 31.4337 11.4499 30.9516 12.3042L30.9034 12.3684ZM21.4624 29.1727V29.0843V29.0361C21.4578 28.9853 21.4578 28.9342 21.4624 28.8835C21.4859 28.7548 21.5209 28.6284 21.5668 28.5059C21.6231 28.3373 21.6231 28.3373 21.6793 28.1686L21.6792 28.0882C21.6763 28.0615 21.6763 28.0346 21.6792 28.0079C21.6957 27.9603 21.7172 27.9145 21.7434 27.8714C21.7434 27.8071 21.7996 27.7509 21.8317 27.6946L21.92 27.534C21.9842 27.4296 22.0485 27.3252 22.1287 27.2127C22.209 27.1003 22.3294 26.9075 22.4739 26.7147L22.6746 26.4576L23.0118 26.0238C23.2767 25.7025 23.5176 25.4295 23.7745 25.1564C23.3573 24.1934 22.7323 23.3348 21.9441 22.6422C21.4715 23.1004 21.029 23.5887 20.6194 24.1041C19.5242 25.2945 18.7409 26.7378 18.3394 28.3051C18.0877 29.4031 18.0713 30.5419 18.2913 31.6467C18.3663 32.002 18.4683 32.3511 18.5964 32.6909C18.8701 33.4063 19.243 34.0796 19.7042 34.6911L19.9611 35.0445L20.0575 35.165C20.202 35.3577 20.3626 35.5586 20.5312 35.7514C20.764 35.5666 20.9968 35.3738 21.2216 35.165L21.6149 34.8115L21.7835 34.6509C22.1244 34.3216 22.4461 33.9729 22.7469 33.6066L22.498 33.3014C22.1694 32.8897 21.8792 32.4488 21.631 31.9841C21.4832 31.6771 21.3727 31.3535 21.3018 31.0202C21.3018 30.9505 21.2858 30.8461 21.2536 30.7069C21.2493 30.6803 21.2493 30.6532 21.2536 30.6266C21.2489 30.5678 21.2489 30.5086 21.2536 30.4498C21.2495 30.3937 21.2495 30.3373 21.2536 30.2812V30.1847C21.2856 29.8328 21.3556 29.4854 21.4624 29.1485V29.1727ZM21.3018 7.66938C21.5473 7.37496 21.7308 7.03387 21.8412 6.66668C21.9515 6.29949 21.9866 5.91376 21.9441 5.53268C21.7033 4.6009 20.5392 4.0788 20.3385 3.99044C20.093 4.28486 19.9095 4.62595 19.7991 4.99314C19.6888 5.36033 19.6537 5.74606 19.6962 6.12714C19.937 7.02679 21.0931 7.5569 21.3018 7.64526V7.66938ZM34.3716 14.2079C34.1869 14.5373 33.7695 15.3084 33.1513 16.2723H34.4358C35.2406 16.2756 36.0449 16.2299 36.8442 16.1357C37.725 16.0465 38.5974 15.8881 39.4534 15.6618C40.3846 15.4066 41.2882 15.0595 42.1508 14.6256C42.5367 14.4346 42.9118 14.2228 43.2747 13.991C42.8377 13.008 42.3307 12.0577 41.7574 11.1475C41.4202 11.3644 41.067 11.5732 40.7057 11.7579C40.0325 12.0937 39.328 12.3627 38.6024 12.5612C37.9078 12.7482 37.1989 12.8772 36.483 12.9468C35.9714 13.0088 35.4569 13.0436 34.9416 13.0512C34.8051 13.3806 34.6044 13.7581 34.3716 14.1838V14.2079ZM28.0775 24.7145L28.0133 24.5218C27.9732 24.4173 27.9411 24.3129 27.9009 24.2005L27.8447 24.0318C27.8447 23.9675 27.7965 23.9113 27.7805 23.8551V23.8068C27.652 23.4855 27.5156 23.1964 27.3791 22.9313C27.3309 22.843 27.2828 22.7546 27.2426 22.6662L27.1222 22.4574C27.1222 22.3931 27.05 22.3289 27.0098 22.2726L26.9055 22.0879C26.8011 21.9112 26.6887 21.7505 26.5843 21.5979L26.4077 21.3409L26.223 21.0999L26.0545 20.883C25.7477 20.5042 25.4207 20.1422 25.075 19.7986L24.8342 19.5576L24.5291 19.2765L24.1839 18.9793C23.7061 19.2414 23.29 19.603 22.9636 20.0396C22.6578 20.4973 22.4525 21.0147 22.3615 21.5577L22.4338 21.614L22.5141 21.6943L22.7549 21.9192L22.8191 21.9835L22.9155 22.0799L23.2767 22.4735C23.3235 22.518 23.3664 22.5664 23.4052 22.618L23.5256 22.7626L23.6541 22.9233L23.7664 23.0679L23.8708 23.2124C24.0335 23.4341 24.1836 23.6647 24.3204 23.9033C24.3481 23.9397 24.3698 23.9804 24.3846 24.0237C24.4349 24.1041 24.4804 24.1872 24.5211 24.2727C24.5536 24.3273 24.5831 24.3836 24.6094 24.4415V24.4977L24.6736 24.6262C24.6736 24.6262 24.7138 24.7065 24.7379 24.7547L24.8342 24.9796C24.8342 25.0519 24.8904 25.1323 24.9225 25.2046L25.0188 25.4616L25.0911 25.6945C25.0911 25.7668 25.1393 25.8471 25.1553 25.9194C25.3106 26.4629 25.4154 27.0195 25.4684 27.5822L25.645 27.8071C25.7414 27.9196 25.8297 28.0401 25.926 28.1686C25.9597 28.2025 25.9894 28.2402 26.0143 28.281L26.223 28.5461C27.0251 29.4717 27.6902 30.5078 28.198 31.6226C28.7366 29.7504 28.7974 27.7729 28.3746 25.8712C28.2996 25.4696 28.2006 25.076 28.0775 24.6905V24.7145ZM22.6987 11.7821C22.9717 10.5852 21.9521 9.29198 21.7835 9.09117C21.5507 9.19559 20.0655 9.8944 19.7925 11.1234C19.5196 12.3524 20.5392 13.6055 20.7077 13.8063C20.9406 13.6778 22.4258 12.9548 22.6987 11.7579V11.7821ZM40.1919 17.1478C38.4659 18.0636 37.9923 20.6741 37.9441 21.0035C38.2411 21.14 40.6656 22.2084 42.3916 21.2846C44.1177 20.3609 44.5913 17.7583 44.6475 17.429C44.3425 17.2684 41.918 16.2 40.1919 17.1238V17.1478ZM39.1563 10.7218C39.3999 10.6451 39.6197 10.5073 39.7949 10.3214C39.97 10.1355 40.0947 9.90774 40.1568 9.65993C40.2189 9.41212 40.2164 9.15249 40.1497 8.90589C40.0829 8.65929 39.9541 8.43395 39.7754 8.25138C39.5968 8.06881 39.3744 7.93512 39.1294 7.86309C38.8844 7.79105 38.6251 7.78305 38.3762 7.8399C38.1272 7.89674 37.897 8.0165 37.7075 8.18774C37.518 8.35899 37.3756 8.57601 37.2938 8.81804C36.491 9.6213 36.6515 11.0431 36.6756 11.284C37.1062 11.3594 37.5475 11.3478 37.9736 11.2498C38.3996 11.1519 38.8018 10.9696 39.1563 10.7137V10.7218ZM154.295 26.2488V15.5654H150.939V31.8234H154.761L161.689 21.0919V31.8234H165.037V15.5574H161.215L154.295 26.2488ZM180.13 19.0194V15.5815H167.485V31.8394H180.13V28.4015H170.833V25.4054H178.123V21.9433H170.833V18.9953L180.13 19.0194ZM69.5426 31.8716H65.6811L71.7102 15.6136H76.1417L82.1949 31.8716H78.3254L77.1292 28.3854H70.7629L69.5426 31.8716ZM71.8949 25.1403H76.0133L73.9661 19.1961L71.8949 25.1403ZM105.051 15.6136L99.086 31.8716H102.948L107.323 19.5335L111.746 31.8154H115.616L109.667 15.5574L105.051 15.6136ZM130.131 28.4658H120.738V25.4696H128.027V21.9433H120.738V18.9953H130.131V15.5574H117.39V31.8154H130.131V28.4658ZM135.365 31.9037L134.875 33.454H131.921V28.4738H133.069C133.612 28.3211 134.096 28.0074 134.458 27.5741C135.072 26.7908 135.388 25.8141 135.349 24.819V15.5574H147.238V28.4096H148.756V33.3898H145.801L145.312 31.8394L135.365 31.9037ZM137.717 28.4738H143.762V18.9953H138.833V25.06C138.833 25.8267 138.672 26.5849 138.359 27.285C138.183 27.6727 137.968 28.0414 137.717 28.3854V28.4738ZM60.5592 22.0478H54.0163V15.6618H50.6606V31.9198H54.0163V25.4937H60.5592V31.9198H63.9149V15.5574H60.5592V22.0478ZM93.3138 27.9758C92.5408 28.5552 91.5982 28.863 90.6325 28.8513C89.9962 28.8634 89.3648 28.7392 88.7805 28.487C88.1962 28.2349 87.6725 27.8606 87.2446 27.3894C86.3641 26.3914 85.8782 25.106 85.8782 23.7747C85.8782 22.4435 86.3641 21.1581 87.2446 20.1601C88.0025 19.3503 89.0264 18.8406 90.129 18.7241C91.2316 18.6076 92.3393 18.8921 93.2496 19.5255C94.0397 20.0934 94.6455 20.8811 94.9917 21.7907L98.3635 20.5617C97.7269 18.9829 96.648 17.6217 95.2566 16.6418C94.328 15.9931 93.2728 15.5484 92.1603 15.3368C91.0477 15.1252 89.9029 15.1515 88.8012 15.4139C87.6996 15.6764 86.6659 16.1692 85.768 16.8598C84.8702 17.5504 84.1285 18.4233 83.5918 19.4211C82.8903 20.7693 82.524 22.2668 82.524 23.7868C82.524 25.3067 82.8903 26.8043 83.5918 28.1525C84.2729 29.4321 85.2917 30.5004 86.5373 31.2411C87.7829 31.9818 89.2076 32.3665 90.6565 32.3535C92.3433 32.3671 93.9908 31.8439 95.361 30.8595C96.7801 29.8378 97.8642 28.4176 98.4759 26.7789L95.08 25.574C94.7186 26.4906 94.1065 27.2868 93.3138 27.8714V27.9758ZM53.7032 38.4905C53.834 38.5993 53.937 38.7375 54.004 38.8939C54.071 39.0503 54.1 39.2203 54.0886 39.3901C54.0991 39.5707 54.0659 39.7512 53.9918 39.9162C53.9177 40.0812 53.8049 40.2258 53.6631 40.3379C53.309 40.5778 52.8856 40.6937 52.4588 40.6673H50.6606V36.4662H53.8236V36.9723H51.2546V38.1772H52.5632C52.9676 38.1501 53.3694 38.2605 53.7032 38.4905ZM53.4865 39.4142C53.4865 38.9001 53.1413 38.6511 52.4348 38.6511H51.2546V40.1934H52.4348C52.7171 40.2163 52.9992 40.1457 53.2376 39.9925C53.3218 39.9245 53.3884 39.8371 53.4317 39.7378C53.475 39.6385 53.4938 39.5303 53.4865 39.4222V39.4142ZM55.4052 38.2334C55.3955 38.5995 55.3606 38.9645 55.3008 39.3258C55.2683 39.5463 55.1889 39.7572 55.068 39.9444C55.0218 40.0117 54.9593 40.0662 54.8862 40.1028C54.8132 40.1393 54.7321 40.1567 54.6505 40.1532C54.5865 40.161 54.5219 40.161 54.4579 40.1532V40.6914C54.5813 40.7224 54.7079 40.7385 54.8352 40.7396C54.9572 40.7466 55.0792 40.7256 55.1919 40.6783C55.3046 40.631 55.405 40.5585 55.4854 40.4665C55.6657 40.2309 55.7868 39.9554 55.8387 39.6632C55.9228 39.1965 55.9684 38.7237 55.9751 38.2495V37.0205H57.8377V40.6994H58.4238V36.4984H55.4694L55.4052 38.2334ZM61.7072 36.4662L63.6099 40.6673H62.9837L62.5181 39.615H60.2862L59.8287 40.6673H59.2105L61.1131 36.4662H61.7072ZM62.3093 39.1331L61.4021 37.0767L60.495 39.1331H62.3093ZM67.1262 36.9884V36.4662H64.3725V40.6673H64.9666V36.9884H67.1262ZM71.2045 37.4623C71.3937 37.7981 71.4931 38.1772 71.4931 38.5628C71.4931 38.9483 71.3937 39.3274 71.2045 39.6632C71.0183 40.0016 70.7399 40.2802 70.4016 40.4665C70.0485 40.6509 69.656 40.7472 69.2577 40.7472C68.8593 40.7472 68.4668 40.6509 68.1136 40.4665C67.7759 40.2795 67.4977 40.0011 67.3108 39.6632C67.1161 39.3296 67.0162 38.9491 67.0218 38.5628C67.0164 38.179 67.1164 37.8011 67.3108 37.4703C67.4977 37.1324 67.7759 36.8541 68.1136 36.667C68.4668 36.4826 68.8593 36.3864 69.2577 36.3864C69.656 36.3864 70.0485 36.4826 70.4016 36.667C70.7358 36.8559 71.011 37.134 71.1964 37.4703L71.2045 37.4623ZM70.8914 38.5628C70.8932 38.2803 70.8183 38.0027 70.6746 37.7595C70.5423 37.5145 70.3414 37.3135 70.0966 37.1811C69.8527 37.0396 69.5758 36.9647 69.2938 36.9642C69.012 36.9666 68.7356 37.0413 68.491 37.1811C68.2456 37.3155 68.0426 37.5159 67.9049 37.7595C67.7641 38.0035 67.6919 38.2811 67.6962 38.5628C67.6942 38.8442 67.7662 39.1212 67.9049 39.366C68.0426 39.6097 68.2456 39.81 68.491 39.9444C68.7376 40.0782 69.0132 40.1499 69.2938 40.1532C69.5746 40.1516 69.8505 40.0798 70.0966 39.9444C70.3414 39.812 70.5423 39.611 70.6746 39.366C70.8204 39.1259 70.9007 38.8517 70.9074 38.5708L70.8914 38.5628ZM71.8868 36.9563H73.3159V40.6351H73.9099V36.9563H75.3469V36.4341H71.8868V36.9563ZM79.3931 38.8198C79.55 39.0053 79.6304 39.2437 79.6179 39.4865C79.6243 39.6491 79.5911 39.8108 79.5212 39.9577C79.4513 40.1047 79.3467 40.2324 79.2165 40.3299C78.8744 40.5544 78.4687 40.6615 78.0604 40.6351H76.1417V36.4341H77.94C78.3196 36.4083 78.6973 36.507 79.0158 36.7152C79.144 36.8048 79.2473 36.9256 79.3161 37.0661C79.385 37.2066 79.4169 37.3622 79.4091 37.5185C79.4133 37.7277 79.3515 37.9329 79.2326 38.1049C79.1124 38.2715 78.9444 38.3976 78.7508 38.4663C79.0104 38.5143 79.244 38.654 79.4091 38.86L79.3931 38.8198ZM76.7278 38.2816H77.8999C78.1355 38.2986 78.37 38.2365 78.5662 38.1049C78.645 38.0475 78.7078 37.9708 78.7486 37.8822C78.7893 37.7936 78.8067 37.6961 78.799 37.5989C78.8037 37.5008 78.7851 37.4031 78.7447 37.3137C78.7042 37.2243 78.643 37.1458 78.5662 37.0848C78.37 36.9532 78.1355 36.891 77.8999 36.9081H76.7278V38.2816ZM79.0077 39.4383C79.0157 39.3368 78.9977 39.2349 78.9556 39.1422C78.9135 39.0495 78.8486 38.969 78.7669 38.9082C78.5484 38.7807 78.2967 38.7219 78.0444 38.7395H76.7278V40.1613H78.0444C78.6974 40.188 79.0238 39.9604 79.0238 39.4785L79.0077 39.4383ZM84.499 37.4301C84.6882 37.766 84.7876 38.1451 84.7876 38.5306C84.7876 38.9162 84.6882 39.2952 84.499 39.6311C84.3153 39.9714 84.0363 40.2506 83.6962 40.4343C83.3444 40.6187 82.9533 40.715 82.5562 40.715C82.1591 40.715 81.7679 40.6187 81.4162 40.4343C81.0769 40.2495 80.7981 39.9706 80.6134 39.6311C80.4186 39.2974 80.3187 38.9169 80.3244 38.5306C80.3189 38.1469 80.4189 37.769 80.6134 37.4382C80.7981 37.0987 81.0769 36.8198 81.4162 36.6349C81.7679 36.4506 82.1591 36.3543 82.5562 36.3543C82.9533 36.3543 83.3444 36.4506 83.6962 36.6349C84.0454 36.8267 84.3302 37.1173 84.5151 37.4703L84.499 37.4301ZM84.1939 38.5306C84.1957 38.2481 84.1208 37.9705 83.9771 37.7274C83.8403 37.4858 83.6406 37.2859 83.3991 37.149C83.1552 37.0075 82.8783 36.9326 82.5963 36.9321C82.3143 36.9326 82.0374 37.0075 81.7935 37.149C81.5465 37.2813 81.343 37.4821 81.2074 37.7274C81.0638 37.9705 80.9889 38.2481 80.9907 38.5306C80.9912 38.8128 81.0659 39.0898 81.2074 39.3339C81.343 39.5791 81.5465 39.78 81.7935 39.9122C82.0401 40.0464 82.3157 40.1181 82.5963 40.1211C82.8771 40.1191 83.153 40.0474 83.3991 39.9122C83.6406 39.7753 83.8403 39.5754 83.9771 39.3339C84.1176 39.1031 84.1977 38.8407 84.21 38.5708L84.1939 38.5306ZM88.7378 36.8197C88.8867 36.9566 89.0056 37.123 89.0869 37.3083C89.1682 37.4935 89.2102 37.6937 89.2102 37.8961C89.2102 38.0984 89.1682 38.2986 89.0869 38.4838C89.0056 38.6691 88.8867 38.8355 88.7378 38.9724C88.3714 39.2482 87.9191 39.3849 87.4613 39.358H86.4498V40.6351H85.8557V36.4341H87.4613C87.9326 36.4215 88.3922 36.5815 88.7539 36.8839L88.7378 36.8197ZM88.6094 37.8961C88.6213 37.7641 88.6004 37.6312 88.5486 37.5093C88.4968 37.3873 88.4156 37.2802 88.3123 37.1972C88.0564 37.02 87.7478 36.935 87.4372 36.9563H86.4498V38.8359H87.4694C87.7799 38.8571 88.0885 38.7722 88.3444 38.5949C88.439 38.5143 88.5136 38.4129 88.5624 38.2986C88.6111 38.1843 88.6327 38.0603 88.6254 37.9362L88.6094 37.8961ZM90.6966 39.6712V36.4582H90.1026V40.6593H90.6565L93.1452 37.4462V40.6593H93.7313V36.4582H93.1773L90.6966 39.6712ZM94.518 36.9563H95.9551V40.6351H96.5411V36.9563H97.9781V36.4341H94.518V36.9563ZM99.3349 38.7555H101.438V38.2415H99.3349V36.9563H101.695V36.4341H98.7328V40.6351H101.775V40.1131H99.367L99.3349 38.7555ZM103.188 38.2013C103.183 38.5676 103.148 38.9329 103.084 39.2937C103.055 39.5151 102.975 39.7268 102.851 39.9122C102.806 39.979 102.745 40.0331 102.673 40.0697C102.602 40.1062 102.522 40.1239 102.442 40.1211C102.378 40.1288 102.313 40.1288 102.249 40.1211L102.201 40.6593C102.324 40.6902 102.451 40.7064 102.578 40.7075C102.7 40.7145 102.822 40.6935 102.935 40.6462C103.048 40.5989 103.148 40.5264 103.229 40.4343C103.412 40.2006 103.533 39.9243 103.582 39.6311C103.666 39.1644 103.712 38.6915 103.718 38.2173L103.766 36.9884H105.717V40.6673H106.303V36.4662H103.309L103.188 38.2013ZM110.566 38.2013C110.703 38.3252 110.81 38.4784 110.88 38.6495C110.949 38.8205 110.979 39.005 110.968 39.1893C110.98 39.3862 110.948 39.5833 110.873 39.7657C110.798 39.9481 110.682 40.1109 110.534 40.2416C110.181 40.5054 109.745 40.6337 109.306 40.603H107.58V36.402H108.174V37.8639H109.418C109.857 37.8429 110.287 37.9893 110.622 38.2736L110.566 38.2013ZM110.365 39.2054C110.365 38.627 110.004 38.3378 109.282 38.3378H108.174V40.1291H109.282C109.57 40.149 109.855 40.0634 110.085 39.8881C110.179 39.8181 110.258 39.729 110.316 39.6266C110.374 39.5242 110.41 39.4109 110.422 39.2937L110.365 39.2054ZM114.925 38.2093H112.517V36.402H111.923V40.603H112.517V38.7314H114.925V40.603H115.52V36.402H114.925V38.2093ZM119.879 38.2093C120.016 38.3333 120.123 38.4864 120.192 38.6575C120.262 38.8285 120.292 39.0131 120.28 39.1973C120.293 39.3942 120.26 39.5914 120.185 39.7737C120.11 39.9561 119.994 40.1189 119.847 40.2496C119.493 40.5122 119.058 40.6403 118.618 40.6111H116.957V36.41H117.543V37.8719H118.795C119.211 37.8647 119.615 38.0072 119.935 38.2736L119.879 38.2093ZM119.678 39.2134C119.678 38.6351 119.317 38.3459 118.594 38.3459H117.478V40.1371H118.594C118.882 40.157 119.168 40.0714 119.397 39.8962C119.493 39.8252 119.572 39.7349 119.63 39.631C119.688 39.5272 119.724 39.4123 119.734 39.2937L119.678 39.2134ZM120.938 40.6111H121.533V36.41H120.971L120.938 40.6111ZM124.704 35.7915C124.548 35.8019 124.395 35.7563 124.27 35.663C124.215 35.6206 124.171 35.5657 124.142 35.5028C124.113 35.4399 124.099 35.3709 124.102 35.3015H123.676C123.671 35.4175 123.693 35.5331 123.74 35.639C123.788 35.745 123.859 35.8384 123.949 35.912C124.171 36.0626 124.436 36.136 124.704 36.1208C124.973 36.1388 125.24 36.0622 125.458 35.904C125.548 35.8321 125.619 35.7401 125.667 35.6354C125.714 35.5307 125.736 35.4164 125.731 35.3015H125.314C125.313 35.3703 125.298 35.4382 125.269 35.5005C125.24 35.5629 125.197 35.6182 125.145 35.663C125.04 35.7638 124.905 35.8285 124.76 35.8478L124.704 35.7915ZM123.499 39.6552V36.4422H122.905V40.6432H123.451L125.94 37.4301V40.6432H126.59V36.4422H126.036L123.499 39.6552ZM133.615 37.2454C133.807 37.4033 133.96 37.6038 134.062 37.831C134.164 38.0582 134.211 38.306 134.201 38.5547C134.21 38.8022 134.162 39.0483 134.06 39.2741C133.959 39.4998 133.806 39.699 133.615 39.856C133.15 40.1988 132.586 40.3794 132.009 40.3701V40.8119H131.447V40.3701C130.858 40.3772 130.282 40.1972 129.801 39.856C129.61 39.699 129.458 39.4998 129.356 39.2741C129.254 39.0483 129.206 38.8022 129.215 38.5547C129.205 38.306 129.253 38.0582 129.354 37.831C129.456 37.6038 129.609 37.4033 129.801 37.2454C130.279 36.8974 130.857 36.7167 131.447 36.7313V36.3056H132.009V36.7313C132.606 36.7208 133.19 36.9071 133.671 37.2614L133.615 37.2454ZM131.415 37.2053C130.976 37.2064 130.548 37.3408 130.187 37.5908C130.046 37.7071 129.935 37.8551 129.862 38.0226C129.79 38.1901 129.758 38.3725 129.769 38.5547C129.762 38.7361 129.797 38.9166 129.871 39.0824C129.944 39.2482 130.055 39.3947 130.195 39.5106C130.552 39.7624 130.978 39.8996 131.415 39.9042V37.2053ZM133.623 38.5467C133.63 38.3654 133.596 38.1848 133.522 38.019C133.448 37.8532 133.337 37.7067 133.197 37.5908C132.838 37.3428 132.413 37.2085 131.977 37.2053V39.9042C132.415 39.9012 132.84 39.7638 133.197 39.5106C133.347 39.4022 133.469 39.2597 133.553 39.0949C133.636 38.93 133.68 38.7477 133.679 38.5628L133.623 38.5467ZM139.01 37.4543C139.199 37.7901 139.298 38.1692 139.298 38.5547C139.298 38.9403 139.199 39.3193 139.01 39.6552C138.825 39.9947 138.546 40.2736 138.207 40.4585C137.855 40.6428 137.464 40.7391 137.067 40.7391C136.67 40.7391 136.279 40.6428 135.927 40.4585C135.589 40.2714 135.311 39.9931 135.124 39.6552C134.929 39.3216 134.829 38.941 134.835 38.5547C134.83 38.171 134.93 37.7931 135.124 37.4623C135.311 37.1244 135.589 36.846 135.927 36.659C136.279 36.4746 136.67 36.3783 137.067 36.3783C137.464 36.3783 137.855 36.4746 138.207 36.659C138.567 36.8387 138.866 37.121 139.066 37.4703L139.01 37.4543ZM138.697 38.5547C138.698 38.2723 138.624 37.9946 138.48 37.7515C138.348 37.5065 138.147 37.3055 137.902 37.1731C137.658 37.0315 137.381 36.9568 137.099 36.9563C136.817 36.9568 136.54 37.0315 136.296 37.1731C136.051 37.3075 135.848 37.5078 135.71 37.7515C135.569 37.9954 135.497 38.273 135.501 38.5547C135.499 38.8362 135.571 39.1132 135.71 39.358C135.848 39.6016 136.051 39.8019 136.296 39.9363C136.543 40.0705 136.818 40.1422 137.099 40.1452C137.38 40.1432 137.656 40.0714 137.902 39.9363C138.147 39.804 138.348 39.603 138.48 39.358C138.638 39.1242 138.733 38.8526 138.753 38.5708L138.697 38.5547ZM143.337 38.2655H140.928V36.4582H140.326V40.6593H140.928V38.7877H143.337V40.6593H143.939V36.4582H143.337V38.2655ZM148.627 40.1371H149.246V41.575H148.692V40.6593H145.24V41.575H144.678V40.1371H144.886C145.154 40.1371 145.339 39.9283 145.44 39.5106C145.571 38.9523 145.638 38.3811 145.641 37.8077L145.681 36.4582H148.627V40.1371ZM148.041 36.9803H146.195V37.8639C146.18 38.3566 146.132 38.8478 146.05 39.3339C146.018 39.6333 145.892 39.9147 145.689 40.1371H148.098L148.041 36.9803Z" fill="#1084BC"/>
</svg>
