<svg width="14" height="15" viewBox="0 0 14 15" fill="none" xmlns="http://www.w3.org/2000/svg">
<path d="M7.00016 13.9479C6.41683 13.9479 7.10691 13.0268 4.23108 11.5942C4.07352 11.5155 3.92063 11.4279 3.77316 11.3317C2.34225 10.4007 1.4585 8.69792 1.4585 6.86508C1.4585 3.85042 3.93941 1.40625 7.00016 1.40625C10.0609 1.40625 12.5418 3.85042 12.5418 6.8645C12.5418 8.884 11.4662 10.7478 9.77391 11.5918C6.89516 13.0263 7.5835 13.9479 7.00016 13.9479ZM7.00016 9.05375C8.23158 9.05375 9.21683 8.07842 9.21683 6.8925C9.21683 5.70658 8.23158 4.73125 7.00016 4.73125C5.76875 4.73125 4.7835 5.70658 4.7835 6.8925C4.7835 8.07842 5.76875 9.05375 7.00016 9.05375Z" fill="#B2E2F8"/>
</svg>
