<svg width="20" height="21" viewBox="0 0 20 21" fill="none" xmlns="http://www.w3.org/2000/svg">
<path fill-rule="evenodd" clip-rule="evenodd" d="M18.3332 10.2396C18.3332 14.8419 14.6022 18.5729 9.99984 18.5729C5.39746 18.5729 1.6665 14.8419 1.6665 10.2396C1.6665 5.63721 5.39746 1.90625 9.99984 1.90625C14.6022 1.90625 18.3332 5.63721 18.3332 10.2396ZM10.2984 8.05828C9.48792 8.39542 7.86798 9.09317 5.43865 10.1516C5.04415 10.3085 4.8375 10.462 4.8187 10.612C4.7869 10.8657 5.1045 10.9655 5.53696 11.1015C5.5958 11.12 5.65675 11.1392 5.71923 11.1594C6.14471 11.2977 6.71707 11.4596 7.01461 11.466C7.28451 11.4718 7.58575 11.3606 7.91833 11.1322C10.1882 9.6 11.3598 8.82558 11.4333 8.80883C11.4853 8.79708 11.5572 8.78225 11.6059 8.82558C11.6547 8.86892 11.6498 8.95092 11.6447 8.97292C11.6133 9.10708 10.3666 10.2661 9.72142 10.8658C9.52034 11.0528 9.37767 11.1854 9.3485 11.2157C9.28317 11.2836 9.21659 11.3477 9.15259 11.4094C8.75734 11.7905 8.46084 12.0763 9.169 12.5429C9.50934 12.7672 9.78159 12.9526 10.0533 13.1376C10.3499 13.3397 10.6458 13.5412 11.0288 13.7922C11.1263 13.8561 11.2194 13.9225 11.3102 13.9872C11.6554 14.2333 11.9656 14.4545 12.3488 14.4192C12.5715 14.3987 12.8015 14.1893 12.9183 13.5648C13.1944 12.089 13.7371 8.89125 13.8625 7.57359C13.8735 7.45815 13.8597 7.3104 13.8486 7.24554C13.8374 7.18068 13.8143 7.08827 13.7299 7.01986C13.6301 6.93884 13.476 6.92176 13.407 6.92292C13.0936 6.9285 12.6127 7.09571 10.2984 8.05828Z" fill="#B2E2F8"/>
</svg>
