<svg width="40" height="41" viewBox="0 0 40 41" fill="none" xmlns="http://www.w3.org/2000/svg">
<path d="M20.0002 36.9076C29.2049 36.9076 36.6668 29.4456 36.6668 20.2409C36.6668 11.0361 29.2049 3.57422 20.0002 3.57422C10.7954 3.57422 3.3335 11.0361 3.3335 20.2409C3.3335 29.4456 10.7954 36.9076 20.0002 36.9076Z" fill="#B2E2F8"/>
<path d="M20.3472 27.2402C13.8575 27.2402 10.1545 22.7369 10 15.2402H13.2501C13.3567 20.7431 15.7543 23.0719 17.6538 23.553V15.2402H20.7175V19.9855C22.5903 19.7808 24.5617 17.6195 25.225 15.2402H28.2914C27.7799 18.1698 25.6433 20.3337 24.1248 21.2216C25.6433 21.9421 28.0756 23.8269 29 27.2402H25.6326C24.908 24.9593 23.1018 23.1915 20.7201 22.9522V27.2402H20.3472Z" fill="#1084BC"/>
</svg>
