<svg width="20" height="21" viewBox="0 0 20 21" fill="none" xmlns="http://www.w3.org/2000/svg">
<path fill-rule="evenodd" clip-rule="evenodd" d="M14.8507 13.6738C14.6498 14.2423 13.8515 14.7126 13.2148 14.8502C12.779 14.9427 12.2107 15.0159 10.2957 14.2223C8.14483 13.3312 5.15817 10.1571 5.15817 8.04476C5.15817 6.96943 5.77817 5.71729 6.86234 5.71729C7.384 5.71729 7.49901 5.72746 7.67067 6.13924C7.87151 6.62439 8.36151 7.81969 8.41984 7.94222C8.66067 8.44487 8.17483 8.73912 7.82233 9.17676C7.70983 9.30846 7.58234 9.4509 7.72484 9.69596C7.86651 9.93604 8.3565 10.7346 9.0765 11.3757C10.0065 12.2042 10.7607 12.4688 11.0307 12.5813C11.2315 12.6647 11.4715 12.6452 11.6182 12.4885C11.804 12.2876 12.0348 11.9543 12.2698 11.6259C12.4357 11.3908 12.6465 11.3615 12.8673 11.4448C13.0165 11.4965 14.9123 12.3769 14.9923 12.5178C15.0515 12.6204 15.0515 13.1053 14.8507 13.6738ZM10.0015 1.90625H9.99733C5.40317 1.90625 1.6665 5.64404 1.6665 10.2396C1.6665 12.0618 2.25401 13.7524 3.25318 15.1236L2.21484 18.2201L5.41734 17.1968C6.73484 18.0687 8.30734 18.5729 10.0015 18.5729C14.5957 18.5729 18.3332 14.8351 18.3332 10.2396C18.3332 5.64404 14.5957 1.90625 10.0015 1.90625Z" fill="#B2E2F8"/>
</svg>
