<svg width="24" height="24" viewBox="0 0 24 24" fill="none" xmlns="http://www.w3.org/2000/svg">
<path d="M2.03906 12C2.03906 6.477 6.51506 2 12.0391 2C17.5611 2 22.0391 6.477 22.0391 12C22.0391 17.523 17.5611 22 12.0391 22C6.51506 22 2.03906 17.523 2.03906 12Z" fill="#FC3F1D"/>
<path d="M13.3202 7.66557H12.3962C10.7022 7.66557 9.81123 8.52357 9.81123 9.78857C9.81123 11.2186 10.4272 11.8886 11.6922 12.7476L12.7372 13.4516L9.73423 17.9386H7.49023L10.1852 13.9246C8.63524 12.8136 7.76523 11.7346 7.76523 9.90957C7.76523 7.62157 9.36023 6.05957 12.3852 6.05957H15.3882V17.9276H13.3202V7.66557Z" fill="white"/>
</svg>
