<svg width="39" height="41" viewBox="0 0 39 41" fill="none" xmlns="http://www.w3.org/2000/svg">
<path d="M19.5 36.9076C28.4746 36.9076 35.75 29.4456 35.75 20.2409C35.75 11.0361 28.4746 3.57422 19.5 3.57422C10.5254 3.57422 3.25 11.0361 3.25 20.2409C3.25 29.4456 10.5254 36.9076 19.5 36.9076Z" fill="#B2E2F8"/>
<path fill-rule="evenodd" clip-rule="evenodd" d="M28.6817 13.8887C29.0059 14.2212 29.2396 14.6352 29.3594 15.0892C30.0491 17.9367 29.8897 22.4339 29.3728 25.3913C29.253 25.8453 29.0193 26.2592 28.6951 26.5918C28.3708 26.9244 27.9672 27.1641 27.5246 27.2869C25.9041 27.7402 19.3817 27.7402 19.3817 27.7402C19.3817 27.7402 12.8594 27.7402 11.2388 27.2869C10.7962 27.1641 10.3926 26.9244 10.0683 26.5918C9.74408 26.2592 9.5104 25.8453 9.39064 25.3913C8.69685 22.5562 8.88705 18.0562 9.37723 15.1029C9.497 14.6488 9.73067 14.2349 10.0549 13.9023C10.3792 13.5697 10.7828 13.3302 11.2254 13.2072C12.846 12.754 19.3683 12.7402 19.3683 12.7402C19.3683 12.7402 25.8906 12.7402 27.5112 13.1936C27.9538 13.3164 28.3574 13.5561 28.6817 13.8887ZM22.7031 20.2402L17.2924 23.4545V17.0259L22.7031 20.2402Z" fill="#1084BC"/>
</svg>
